<?xml version="1.0" standalone="no"?>
<!DOCTYPE svg PUBLIC "-//W3C//DTD SVG 1.1//EN" "http://www.w3.org/Graphics/SVG/1.1/DTD/svg11.dtd" >
<svg xmlns="http://www.w3.org/2000/svg" xmlns:xlink="http://www.w3.org/1999/xlink" version="1.1">
<metadata>
Created by FontForge 20170731 at Wed Oct 28 07:06:16 2020
 By Aleksey,,,
Copyright (c) 2011 Rod McDonald. Published by Canada Type. All rights reserved.
</metadata>
<defs>
<font id="Gibson-SemiBold" horiz-adv-x="1282" >
  <font-face 
    font-family="Gibson Light"
    font-weight="600"
    font-stretch="normal"
    units-per-em="2048"
    panose-1="2 0 0 0 0 0 0 0 0 0"
    ascent="1638"
    descent="-410"
    x-height="1008"
    cap-height="1413"
    bbox="-242 -424 2908 1931"
    underline-thickness="102"
    underline-position="-307"
    unicode-range="U+0020-FB04"
  />
<missing-glyph horiz-adv-x="409" 
 />
    <glyph glyph-name="ff" unicode="ff" horiz-adv-x="1327" 
d="M1403 1413l-17 -227q-63 18 -120 18q-67 0 -94 -34t-27 -97v-65h217v-248h-217v-760h-330v760h-334v-760h-329v760h-129v248h129v55q0 188 81 272q98 105 283 105q57 0 113 -7t83 -13l27 -7l-16 -227q-64 18 -121 18q-67 0 -94 -34t-27 -97v-65h334v55q0 187 82 272
q98 105 283 105q57 0 113 -7t83 -13z" />
    <glyph glyph-name="fi" unicode="fi" horiz-adv-x="1243" 
d="M1153 1296q0 -76 -51.5 -123t-134.5 -47t-135 47t-52 123q0 75 52 122.5t135 47.5t134.5 -47.5t51.5 -122.5zM1130 1010v-1010h-327v1010h327zM735 1413l-16 -227q-60 18 -117 18q-39 0 -64.5 -12.5t-37 -37t-15.5 -48.5t-4 -57v-41h217v-248h-217v-760h-329v760h-129
v248h129v55q0 191 81 272q102 105 287 105q50 0 104 -7t82 -13z" />
    <glyph glyph-name="fl" unicode="fl" horiz-adv-x="1253" 
d="M1137 1413v-1413h-328v1413h328zM735 1413l-16 -227q-56 18 -117 18q-67 0 -94 -34t-27 -97v-65h217v-248h-217v-760h-329v760h-129v248h129v59q0 176 79 264q98 109 289 109q54 0 107.5 -7t80.5 -13z" />
    <glyph glyph-name="ffi" unicode="ffi" horiz-adv-x="1880" 
d="M1403 1413l-17 -227q-63 18 -120 18q-67 0 -94 -34t-27 -97v-65h217v-248h-217v-760h-330v760h-334v-760h-329v760h-129v248h129v55q0 188 81 272q98 105 283 105q57 0 113 -7t83 -13l27 -7l-16 -227q-64 18 -121 18q-67 0 -94 -34t-27 -97v-65h334v55q0 187 82 272
q98 105 283 105q57 0 113 -7t83 -13zM1767 1010v-1010h-327v1010h327zM1790 1296q0 -76 -51.5 -123t-134.5 -47t-135 47t-52 123q0 75 52 122.5t135 47.5t134.5 -47.5t51.5 -122.5z" />
    <glyph glyph-name="ffl" unicode="ffl" horiz-adv-x="1886" 
d="M1403 1413l-17 -227q-63 18 -120 18q-67 0 -94 -34t-27 -97v-65h217v-248h-217v-760h-330v760h-334v-760h-329v760h-129v248h129v55q0 188 81 272q98 105 283 105q57 0 113 -7t83 -13l27 -7l-16 -227q-64 18 -121 18q-67 0 -94 -34t-27 -97v-65h334v55q0 187 82 272
q98 105 283 105q57 0 113 -7t83 -13zM1772 1413v-1413h-328v1413h328z" />
    <glyph glyph-name="f_j" unicode="fj" horiz-adv-x="1216" 
d="M739 1413l-16 -227q-64 18 -121 18q-67 0 -94 -34t-27 -97v-65h217v-248h-217v-760h-329v760h-129v248h129v55q0 188 81 272q98 105 283 105q57 0 113 -7t83 -13zM1126 1296q0 -76 -51.5 -123t-134.5 -47t-134.5 47t-51.5 123q0 75 51.5 122.5t134.5 47.5t134.5 -47.5
t51.5 -122.5zM1104 1010v-985q0 -210 -84 -304q-100 -112 -281 -112q-49 0 -92 4.5t-61 8.5l-19 5l6 254q42 -12 93 -12q64 0 87 42t23 130v969h328z" />
    <glyph glyph-name="f_t" unicode="ft" horiz-adv-x="1396" 
d="M1374 1008v-248h-223v-363q0 -58 7 -83.5t22 -41.5q21 -24 77 -24q23 0 47.5 4.5t37.5 9.5l14 4l16 -256q-1 0 -17.5 -4.5t-28 -7t-35 -7t-45 -7.5t-50.5 -5t-57 -2q-164 0 -246 95q-38 44 -55 113t-17 184v391h-340v-760h-329v760h-129v248h129v55q0 188 81 272
q98 105 283 105q57 0 113 -7t83 -13l27 -7l-16 -227q-64 18 -121 18q-67 0 -94 -34t-27 -97v-65h340v274h330v-274h223z" />
    <glyph glyph-name=".notdef" horiz-adv-x="409" 
 />
    <glyph glyph-name=".null" horiz-adv-x="0" 
 />
    <glyph glyph-name="nonmarkingreturn" horiz-adv-x="682" 
 />
    <glyph glyph-name="space" unicode=" " horiz-adv-x="403" 
 />
    <glyph glyph-name="exclam" unicode="!" horiz-adv-x="667" 
d="M162 1413h344l-31 -979h-285zM526 154q0 -82 -53 -129.5t-139 -47.5q-88 0 -141.5 47.5t-53.5 129.5t53.5 129t141.5 47q86 0 139 -47t53 -129z" />
    <glyph glyph-name="quotedbl" unicode="&#x22;" horiz-adv-x="1056" 
d="M598 1413h303l-37 -510h-231zM156 1413h303l-37 -510h-232z" />
    <glyph glyph-name="numbersign" unicode="#" horiz-adv-x="1339" 
d="M1253 1071v-174h-245l-50 -289h226v-174h-256l-74 -422h-188l73 422h-254l-73 -422h-189l74 422h-213v174h244l49 289h-221v174h252l73 424h189l-74 -424h254l76 424h186l-74 -424h215zM770 608l49 289h-254l-49 -289h254z" />
    <glyph glyph-name="dollar" unicode="$" 
d="M1139 420q0 -101 -45 -181.5t-113 -134.5q-52 -41 -128 -69t-138 -33l-4 -113h-148l4 109q-119 5 -234.5 60t-189.5 149l152 205q42 -67 133.5 -116.5t161.5 -51.5l6 342l-70 28q-126 53 -184 101q-143 111 -143 293q0 180 135 297q103 89 287 106l4 111h147l-2 -115
q96 -8 190.5 -51.5t153.5 -114.5l-127 -203q-51 57 -115.5 93.5t-123.5 44.5l-9 -328l129 -55q271 -121 271 -373zM612 893l6 285q-59 -5 -96 -42t-37 -96q0 -51 28.5 -82.5t76.5 -54.5zM856 381q0 55 -24.5 88.5t-73.5 58.5l-33 17l-6 -305q51 5 94 44.5t43 96.5z" />
    <glyph glyph-name="percent" unicode="%" horiz-adv-x="1769" 
d="M1686 340q0 -165 -102.5 -266t-264.5 -101t-264.5 101t-102.5 266t102.5 266t264.5 101t264.5 -101t102.5 -266zM1255 1450l140 -84l-879 -1415l-141 84zM817 1061q0 -165 -102 -267t-264 -102q-161 0 -264 102t-103 267q0 164 103 265t264 101q162 0 264 -100.5
t102 -265.5zM1473 344q0 79 -40.5 127.5t-113.5 48.5q-72 0 -112 -48.5t-40 -127.5q0 -80 40 -129t112 -49q73 0 113.5 49t40.5 129zM606 1063q0 80 -41 129t-114 49q-72 0 -111 -49t-39 -129q0 -79 39.5 -128.5t110.5 -49.5q73 0 114 49.5t41 128.5z" />
    <glyph glyph-name="ampersand" unicode="&#x26;" horiz-adv-x="1542" 
d="M1534 16v-16h-377l-139 152q-112 -92 -216 -134.5t-237 -42.5q-100 0 -188 26t-157.5 76t-109.5 131t-40 183q0 260 340 406q-33 37 -53 62.5t-44.5 65.5t-36.5 84t-12 93q0 109 62 187.5t158.5 114.5t213.5 36q115 0 208 -36t151.5 -112t58.5 -182q0 -114 -75.5 -207
t-190.5 -155l186 -211q34 36 94 120t87 136l231 -127q-44 -71 -114.5 -168t-121.5 -148zM838 1100q0 58 -36 89.5t-97 31.5q-62 0 -100 -33.5t-38 -91.5q0 -13 2 -25t7.5 -24t9.5 -20t13 -20l12 -16t13 -16l11 -12l47 -52q33 21 51.5 34.5t47.5 39.5t43 54.5t14 60.5z
M842 338l-262 289l-41 -23q-30 -17 -52 -33t-46.5 -40.5t-38 -57.5t-13.5 -72q0 -81 58.5 -131.5t140.5 -50.5q73 0 141.5 35t112.5 84z" />
    <glyph glyph-name="quotesingle" unicode="'" horiz-adv-x="716" 
d="M207 1413h303l-37 -510h-231z" />
    <glyph glyph-name="parenleft" unicode="(" horiz-adv-x="684" 
d="M627 -252l-205 -104q-51 76 -90.5 142t-86 165t-77 196t-51.5 223t-21 257q0 161 29 310.5t81.5 274t101.5 213t114 183.5l205 -105q-93 -140 -172.5 -384t-79.5 -492q0 -249 79.5 -494t172.5 -385z" />
    <glyph glyph-name="parenright" unicode=")" horiz-adv-x="684" 
d="M588 627q0 -131 -21 -257t-51 -222.5t-77 -196.5t-85.5 -165t-89.5 -142l-207 104q93 140 172.5 385t79.5 494q0 248 -79.5 492t-172.5 384l207 105q50 -75 89 -141t86 -165t77 -196t51 -223t21 -256z" />
    <glyph glyph-name="asterisk" unicode="*" horiz-adv-x="1075" 
d="M887 1298l59 -170l-301 -79l203 -261l-146 -102l-165 277l-164 -277l-146 102l203 261l-301 79l59 170l279 -114l-23 284h187l-23 -284z" />
    <glyph glyph-name="plus" unicode="+" horiz-adv-x="1435" 
d="M1280 825v-237h-442v-441h-240v441h-442v237h442v441h240v-441h442z" />
    <glyph glyph-name="comma" unicode="," horiz-adv-x="667" 
d="M242 299h315l-221 -586h-268z" />
    <glyph glyph-name="hyphen" unicode="-" horiz-adv-x="694" 
d="M633 678v-256h-572v256h572z" />
    <glyph glyph-name="period" unicode="." horiz-adv-x="667" 
d="M526 154q0 -82 -53 -129.5t-139 -47.5q-88 0 -141.5 47.5t-53.5 129.5t53.5 129t141.5 47q86 0 139 -47t53 -129z" />
    <glyph glyph-name="slash" unicode="/" horiz-adv-x="1110" 
d="M883 1630l192 -86l-846 -1745l-190 88z" />
    <glyph glyph-name="zero" unicode="0" 
d="M1227 705q0 -115 -21 -219.5t-67 -198.5t-113.5 -162.5t-166 -109t-218.5 -40.5q-121 0 -219.5 40.5t-166 109t-113 162.5t-66.5 198.5t-21 219.5t21 219.5t67 198t113.5 162.5t166 109t218.5 40t218.5 -40t166 -109t113.5 -162.5t67 -198t21 -219.5zM901 711
q0 131 -26.5 229t-86 157.5t-147.5 59.5t-147.5 -59.5t-86 -157.5t-26.5 -229q0 -202 65 -326.5t195 -124.5t195 124.5t65 326.5z" />
    <glyph glyph-name="one" unicode="1" horiz-adv-x="958" 
d="M709 1413v-1413h-320v1186h-256v227h576z" />
    <glyph glyph-name="two" unicode="2" 
d="M1196 256v-256h-1036l-39 209l479 432q111 101 162 175t51 159q0 91 -61.5 145t-165.5 54q-98 0 -187.5 -54.5t-154.5 -136.5l-140 217q6 15 29 41t68 60t101.5 63t140 49.5t173.5 20.5q237 0 375.5 -115t138.5 -303q0 -57 -11.5 -109.5t-36.5 -99t-47.5 -81.5
t-61.5 -75.5t-60.5 -60.5t-61.5 -55q-11 -10 -17 -15l-293 -264h655z" />
    <glyph glyph-name="three" unicode="3" 
d="M1167 414q0 -103 -45 -187t-121.5 -138t-175.5 -83t-209 -29q-103 0 -195.5 26t-155.5 66t-103 76t-62 68l152 197q50 -62 151 -119.5t195 -57.5q108 0 178 53t70 146q0 91 -63 141t-162 50h-125v231h125q86 0 137 42.5t51 123.5q0 80 -58 123t-147 43q-167 0 -338 -137
l-123 208q43 38 83 65t99 55t136.5 42.5t169.5 14.5q130 0 240.5 -43.5t180.5 -131t70 -202.5q0 -225 -202 -309v-7q46 -12 89 -39t79 -67t57.5 -97.5t21.5 -123.5z" />
    <glyph glyph-name="four" unicode="4" 
d="M1241 539v-256h-188v-283h-320v283h-688v241l641 893h367v-878h188zM346 532h395v547z" />
    <glyph glyph-name="five" unicode="5" 
d="M1178 473q0 -96 -32 -178t-86.5 -139.5t-127 -98.5t-154 -60.5t-166.5 -19.5q-101 0 -190 21.5t-152.5 57t-107 74t-70.5 79.5l152 194q56 -79 153.5 -124.5t192.5 -45.5q47 0 92.5 14t85.5 41.5t64 75.5t24 109q0 80 -41 135.5t-99 79t-126 23.5q-69 0 -140 -20
t-118 -54l-144 86l109 690h827v-254h-587l-41 -254q74 31 188 31q85 0 168.5 -27t158 -80.5t121 -146t46.5 -209.5z" />
    <glyph glyph-name="six" unicode="6" 
d="M1204 481q0 -105 -36.5 -196.5t-103 -160t-167 -108t-221.5 -39.5q-85 0 -160 21t-130.5 58t-94.5 75t-70 82q-121 169 -121 475q0 187 49.5 333t139.5 239q165 174 432 174q243 0 438 -138l-121 -217q-56 43 -139 74t-164 31q-122 0 -209 -84q-48 -48 -80 -135t-32 -197
q132 145 356 145q83 0 160.5 -29t138.5 -82t98 -136.5t37 -184.5zM891 459q0 97 -61 165t-164 68q-105 0 -167.5 -68t-62.5 -165q0 -98 62.5 -166t167.5 -68q103 0 164 68t61 166z" />
    <glyph glyph-name="seven" unicode="7" 
d="M1130 1413l91 -196l-629 -1217h-348l620 1159h-741v254h1007z" />
    <glyph glyph-name="eight" unicode="8" 
d="M1182 399q0 -136 -74.5 -233t-195 -143t-271.5 -46t-271.5 46t-195 143t-74.5 233q0 127 67.5 213.5t186.5 124.5v4q-42 15 -77.5 38t-68 58.5t-51 88.5t-18.5 118q0 124 70 214t182 133t250 43q137 0 248.5 -43t181.5 -133.5t70 -213.5q0 -87 -33.5 -152t-78 -98
t-101.5 -53v-6q118 -36 186 -123t68 -213zM827 1020q0 81 -51 126.5t-135 45.5q-85 0 -135.5 -45t-50.5 -127q0 -80 50.5 -125t135.5 -45q84 0 135 45t51 125zM860 430q0 93 -62 147t-157 54q-96 0 -157.5 -54t-61.5 -147q0 -92 62.5 -146.5t156.5 -54.5t156.5 54.5
t62.5 146.5z" />
    <glyph glyph-name="nine" unicode="9" 
d="M1182 721q0 -184 -50 -329.5t-141 -241.5q-163 -173 -430 -173q-81 0 -155.5 14.5t-130 38.5t-91.5 45t-63 42l119 215q31 -31 120.5 -67t188.5 -36q126 0 209 86q108 111 108 338q-14 -25 -39.5 -50t-66.5 -50.5t-106 -41t-142 -15.5q-83 0 -160.5 29t-139.5 82t-99 137
t-37 186q0 105 36.5 196.5t103 160t167 108t221.5 39.5q155 0 269.5 -67.5t185.5 -168.5q123 -172 123 -477zM844 958q0 98 -62 166t-166 68q-103 0 -164 -68t-61 -166q0 -97 61 -165t164 -68t165.5 68.5t62.5 164.5z" />
    <glyph glyph-name="colon" unicode=":" horiz-adv-x="667" 
d="M526 852q0 -82 -53 -128t-139 -46q-88 0 -141.5 46t-53.5 128t53.5 129t141.5 47q86 0 139 -47t53 -129zM526 154q0 -82 -53 -129.5t-139 -47.5q-88 0 -141.5 47.5t-53.5 129.5t53.5 129t141.5 47q86 0 139 -47t53 -129z" />
    <glyph glyph-name="semicolon" unicode=";" horiz-adv-x="667" 
d="M526 852q0 -82 -53 -128t-139 -46q-88 0 -141.5 46t-53.5 128t53.5 129t141.5 47q86 0 139 -47t53 -129zM242 299h315l-221 -586h-268z" />
    <glyph glyph-name="less" unicode="&#x3c;" horiz-adv-x="1435" 
d="M1280 412v-265l-1124 424v271l1124 422v-263l-805 -294z" />
    <glyph glyph-name="equal" unicode="=" horiz-adv-x="1435" 
d="M1280 1053v-240h-1124v240h1124zM1280 600v-240h-1124v240h1124z" />
    <glyph glyph-name="greater" unicode="&#x3e;" horiz-adv-x="1435" 
d="M1280 842v-271l-1124 -424v265l805 295l-805 294v263z" />
    <glyph glyph-name="question" unicode="?" horiz-adv-x="1093" 
d="M979 1071q0 -115 -37.5 -182.5t-112.5 -136.5q-35 -30 -102.5 -79t-83.5 -67q-22 -28 -22 -76l-3 -96h-278l-2 133q-1 91 29.5 147t99.5 105l125 90q43 31 66.5 60t23.5 67q0 64 -52 98.5t-145 34.5q-162 0 -288 -122l-95 229q21 23 51.5 45.5t83 50.5t132 45t172.5 17
q192 0 315 -106t123 -257zM672 154q0 -82 -53 -129.5t-140 -47.5t-139.5 47.5t-52.5 129.5t52.5 129t139.5 47t140 -47t53 -129z" />
    <glyph glyph-name="at" unicode="@" horiz-adv-x="1638" 
d="M1561 555q0 -131 -41.5 -238t-110.5 -178q-62 -65 -143 -102t-158 -37t-124.5 33t-59.5 90q-123 -123 -244 -123q-47 0 -92.5 17t-87 52.5t-67 102t-25.5 154.5q0 126 52 240.5t152 188.5t224 74q46 0 86.5 -9t65 -22t42 -26t24.5 -22l7 -9l16 54h168l-133 -500
q-9 -34 -12 -57t0 -45.5t18.5 -34t44.5 -11.5q39 0 81.5 27.5t79.5 76.5t61 126t24 166q0 218 -149.5 353.5t-405.5 135.5q-129 0 -242 -45.5t-195.5 -126t-130.5 -197t-48 -251.5q0 -276 162.5 -440.5t430.5 -164.5q53 0 102.5 4t95 14.5t77 18t72.5 24t55.5 22t52.5 24
t39 18.5l53 -106q-1 -1 -30.5 -18t-42 -24t-49.5 -24.5t-64 -26.5t-73.5 -22.5t-90.5 -20.5t-102.5 -12.5t-120.5 -5.5q-152 0 -285.5 53t-231 148t-154 234.5t-56.5 304.5q0 163 63.5 305.5t169 240t246 153.5t291.5 56q324 0 524 -184q85 -78 137 -189.5t52 -238.5z
M963 367l65 241q-2 3 -6.5 8.5t-20 19t-33.5 23.5t-47.5 18.5t-62.5 8.5q-112 0 -190 -100q-35 -46 -57.5 -112.5t-22.5 -131.5q0 -91 40.5 -138.5t110.5 -47.5q74 0 135.5 54t88.5 157z" />
    <glyph glyph-name="A" unicode="A" horiz-adv-x="1392" 
d="M868 1415l533 -1415h-361l-100 285h-504l-100 -285h-344l532 1415h344zM512 543h352l-176 508z" />
    <glyph glyph-name="B" unicode="B" horiz-adv-x="1275" 
d="M1225 406q0 -200 -156 -314q-125 -92 -362 -92h-578v1413h481q235 0 348 -59q80 -42 130.5 -115.5t50.5 -181.5q0 -111 -61 -196.5t-146 -115.5v-4q135 -33 214 -120t79 -215zM813 1008q0 88 -70 131q-28 18 -58 23t-89 5h-137v-325h129q62 0 95 5.5t60 24.5
q70 50 70 136zM889 432q0 90 -72 141q-34 24 -74 31.5t-102 7.5h-182v-360h182q62 0 102 7.5t74 31.5q72 48 72 141z" />
    <glyph glyph-name="C" unicode="C" horiz-adv-x="1331" 
d="M1198 426l111 -258q-188 -193 -510 -193q-209 0 -376.5 86.5t-266.5 254t-99 389.5q0 167 58 306t158.5 230.5t235.5 142t290 50.5q102 0 191.5 -18.5t148 -47.5t93 -52t52.5 -42l-102 -275q-32 41 -137.5 94.5t-227.5 53.5q-185 0 -304.5 -117t-119.5 -319
q0 -200 122 -317.5t302 -117.5q123 0 219.5 42t161.5 108z" />
    <glyph glyph-name="D" unicode="D" horiz-adv-x="1439" 
d="M1382 707q0 -347 -229 -539q-201 -168 -545 -168h-479v1413h479q346 0 545 -170q229 -189 229 -536zM1047 707q0 210 -125 331q-108 101 -295 101h-168v-858h168q189 0 295 102q125 117 125 324z" />
    <glyph glyph-name="E" unicode="E" horiz-adv-x="1138" 
d="M1063 268v-268h-934v1413h915v-264h-585v-289h553v-264h-553v-328h604z" />
    <glyph glyph-name="F" unicode="F" horiz-adv-x="1069" 
d="M1012 1413v-264h-553v-346h520v-264h-520v-539h-330v1413h883z" />
    <glyph glyph-name="G" unicode="G" horiz-adv-x="1523" 
d="M1421 805v-586q-3 -3 -24 -22t-32 -28t-37.5 -29.5t-46.5 -33t-54.5 -31.5t-65.5 -31t-74 -26t-86.5 -22t-97 -13.5t-110.5 -5.5q-148 0 -280 48.5t-234 139t-162 231t-60 311.5q0 172 60 311.5t162.5 229.5t235 138t282.5 48q359 0 575 -239q2 -2 3.5 -4t2.5 -3
l-219 -191q-145 162 -362 162q-176 0 -290 -121t-114 -331q0 -209 116.5 -331t293.5 -122q64 0 118 9.5t85.5 22.5t53.5 26t30 22l8 10v209h-297v252h620z" />
    <glyph glyph-name="H" unicode="H" horiz-adv-x="1488" 
d="M1360 1413v-1413h-332v592h-567v-592h-332v1413h332v-547h567v547h332z" />
    <glyph glyph-name="I" unicode="I" horiz-adv-x="589" 
d="M461 1413v-1413h-332v1413h332z" />
    <glyph glyph-name="J" unicode="J" horiz-adv-x="587" 
d="M459 1413v-1384q0 -218 -88 -320q-90 -104 -256 -104q-67 0 -131 10.5t-80 19.5l12 244q49 -18 111 -18q57 0 79.5 41t22.5 123v1388h330z" />
    <glyph glyph-name="K" unicode="K" horiz-adv-x="1288" 
d="M791 850l532 -850h-397l-355 590l-112 -125v-465h-330v1413h330v-516l436 516h393z" />
    <glyph glyph-name="L" unicode="L" horiz-adv-x="968" 
d="M948 274v-274h-819v1413h330v-1139h489z" />
    <glyph glyph-name="M" unicode="M" horiz-adv-x="1789" 
d="M1610 1413l104 -1413h-325l-56 963h-4l-303 -963h-262l-305 963h-6l-52 -963h-325l106 1413h418l295 -930h4l291 930h420z" />
    <glyph glyph-name="N" unicode="N" horiz-adv-x="1536" 
d="M1407 1413v-1413h-340l-621 958q7 -169 7 -319v-639h-324v1413h354l607 -950q-7 159 -7 309v641h324z" />
    <glyph glyph-name="O" unicode="O" horiz-adv-x="1613" 
d="M1556 705q0 -168 -58 -306.5t-159 -230.5t-238 -142.5t-294 -50.5q-211 0 -380 86t-269.5 253.5t-100.5 390.5q0 168 58 306.5t159.5 231t238.5 143t294 50.5t294 -50.5t238 -143t159 -231t58 -306.5zM1221 713q0 198 -117 319t-297 121t-297 -120.5t-117 -319.5
t117 -321t297 -122t297 122t117 321z" />
    <glyph glyph-name="P" unicode="P" horiz-adv-x="1183" 
d="M1151 969q0 -215 -147 -340q-129 -107 -369 -107h-174v-522h-332v1413h506q241 0 369 -106q147 -122 147 -338zM815 969q0 99 -67 149q-55 39 -160 39h-129v-379h129q105 0 160 39q67 50 67 152z" />
    <glyph glyph-name="Q" unicode="Q" horiz-adv-x="1613" 
d="M1556 705q0 -287 -165 -482l153 -174l-203 -178l-163 186q-169 -82 -371 -82q-211 0 -380 86t-269.5 253.5t-100.5 390.5q0 168 58 306.5t159.5 231t238.5 143t294 50.5t294 -50.5t238 -143t159 -231t58 -306.5zM1221 713q0 198 -117 319t-297 121t-297 -120.5
t-117 -319.5t117 -321t297 -122q84 0 156 29l-84 96l202 180l86 -98q54 102 54 236z" />
    <glyph glyph-name="R" unicode="R" horiz-adv-x="1228" 
d="M889 584l358 -584h-385l-297 541h-104v-541h-332v1413h508q238 0 373 -100q73 -54 114 -137.5t41 -186.5q0 -95 -27.5 -170.5t-72.5 -121.5t-88 -72.5t-88 -40.5zM831 977q0 92 -71 143q-49 37 -170 37h-131v-362h131q118 0 170 39q71 51 71 143z" />
    <glyph glyph-name="S" unicode="S" horiz-adv-x="1130" 
d="M1083 430q0 -100 -44 -188.5t-121 -149.5q-146 -117 -383 -117q-142 0 -273 61t-229 152l164 242q75 -78 180 -128t188 -50t136 38.5t53 106.5q0 27 -12.5 51t-27 38.5t-43 29.5t-41.5 20.5t-42 16.5l-99 36t-116 44q-3 1 -20 8.5t-26 12t-27.5 14t-32 18.5t-30.5 22
t-32 27q-111 104 -111 273q0 96 41 175t107 134q133 113 372 113q121 0 248 -50.5t201 -124.5l-141 -231q-63 63 -150.5 103t-165.5 40q-83 0 -133.5 -32.5t-50.5 -94.5q0 -30 12 -54t37.5 -41.5t43.5 -26t50 -21.5q34 -14 113.5 -43.5t97.5 -36.5q128 -46 197 -115
q110 -110 110 -272z" />
    <glyph glyph-name="T" unicode="T" horiz-adv-x="1077" 
d="M1069 1413v-262h-364v-1151h-332v1151h-365v262h1061z" />
    <glyph glyph-name="U" unicode="U" horiz-adv-x="1421" 
d="M1303 1413v-823q0 -153 -31.5 -259t-104.5 -186q-155 -168 -456 -168t-459 168q-72 80 -102.5 186t-30.5 259v823h334v-823q0 -85 11 -140.5t44 -95.5q75 -88 203 -88q127 0 202 88q33 40 44.5 96t11.5 140v823h334z" />
    <glyph glyph-name="V" unicode="V" horiz-adv-x="1347" 
d="M1006 1413h350l-525 -1413h-315l-524 1413h352l332 -973z" />
    <glyph glyph-name="W" unicode="W" horiz-adv-x="2011" 
d="M1671 1413h346l-409 -1413h-334l-268 969l-269 -969h-334l-409 1413h346l246 -952l254 952h331l256 -952z" />
    <glyph glyph-name="X" unicode="X" horiz-adv-x="1331" 
d="M883 733l469 -733h-396l-290 526l-293 -526h-396l469 733l-438 680h393l265 -465l264 465h393z" />
    <glyph glyph-name="Y" unicode="Y" horiz-adv-x="1269" 
d="M924 1413h368l-491 -842v-571h-332v571l-492 842h369l289 -563z" />
    <glyph glyph-name="Z" unicode="Z" horiz-adv-x="1255" 
d="M1204 274v-274h-1143v240l693 905h-672v268h1100v-225l-699 -914h721z" />
    <glyph glyph-name="bracketleft" unicode="[" horiz-adv-x="684" 
d="M590 -152v-157h-475v1870h475v-158h-213v-1555h213z" />
    <glyph glyph-name="backslash" unicode="\" horiz-adv-x="1107" 
d="M227 1628l832 -1685l-178 -84l-832 1685z" />
    <glyph glyph-name="bracketright" unicode="]" horiz-adv-x="684" 
d="M578 1561v-1870h-476v157h213v1555h-213v158h476z" />
    <glyph glyph-name="asciicircum" unicode="^" horiz-adv-x="1435" 
d="M852 1458l381 -844h-262l-252 582l-254 -582h-262l381 844h268z" />
    <glyph glyph-name="underscore" unicode="_" horiz-adv-x="1024" 
d="M1024 123v-246h-1024v246h1024z" />
    <glyph glyph-name="grave" unicode="`" horiz-adv-x="854" 
d="M485 1413l164 -297h-233l-209 297h278z" />
    <glyph glyph-name="a" unicode="a" horiz-adv-x="1107" 
d="M1014 569v-569h-314l-6 106q-26 -26 -42.5 -40t-54 -39t-85.5 -37.5t-106 -12.5q-69 0 -133 19t-117 57t-85 101.5t-32 144.5t34.5 141.5t93 95t124.5 52t141 20.5l254 10v23q0 79 -54 120.5t-153 41.5q-87 0 -173.5 -29t-135.5 -61l-86 213q204 102 432 102
q251 0 377 -117q61 -58 91 -138.5t30 -203.5zM688 279v165l-162 -10q-76 -3 -117.5 -34.5t-41.5 -88.5q0 -58 42.5 -91.5t110.5 -33.5q59 0 104 29.5t64 63.5z" />
    <glyph glyph-name="b" unicode="b" horiz-adv-x="1290" 
d="M1239 504q0 -149 -57.5 -268t-167 -189t-252.5 -70q-222 0 -334 156h-2l2 -133h-311v1413h327v-340l-4 -186h6q40 56 120.5 98.5t197.5 42.5q214 0 344.5 -148.5t130.5 -375.5zM905 508q0 117 -64.5 189.5t-170.5 72.5t-172 -72.5t-66 -189.5t66 -189.5t172 -72.5
t170.5 72.5t64.5 189.5z" />
    <glyph glyph-name="c" unicode="c" horiz-adv-x="987" 
d="M889 346l78 -248l-6 -6l-12 -10t-18.5 -13.5t-26 -16.5t-33.5 -17.5t-41 -17.5t-48.5 -15.5t-57.5 -13t-66.5 -8.5t-75.5 -3q-104 0 -199.5 35.5t-170 100.5t-119 166t-44.5 223q0 123 45 224.5t120.5 166t171 100t200.5 35.5q72 0 137.5 -11t107 -26.5t72.5 -31
t45 -26.5l13 -11l-72 -248q-113 90 -260 90q-107 0 -178.5 -69.5t-71.5 -186.5q0 -120 69 -190t185 -70q68 0 132 24.5t94 49.5z" />
    <glyph glyph-name="d" unicode="d" horiz-adv-x="1290" 
d="M1174 1413v-1413h-312l2 133l-6 -2q-56 -75 -142.5 -114.5t-189.5 -39.5q-143 0 -252.5 70t-167 189t-57.5 268t57.5 267.5t167 187.5t252.5 69q122 0 204 -45t116 -96v526h328zM856 508q0 117 -64.5 189.5t-170.5 72.5t-172 -72.5t-66 -189.5t66 -189.5t172 -72.5
t170.5 72.5t64.5 189.5z" />
    <glyph glyph-name="e" unicode="e" horiz-adv-x="1142" 
d="M1100 535l-4 -109h-719q10 -104 81 -157.5t177 -53.5q88 0 168.5 29.5t134.5 66.5l129 -170q-1 0 -20 -16.5t-35.5 -27.5t-47.5 -30.5t-67 -33.5t-82 -27.5t-104.5 -21t-122.5 -7.5q-239 0 -389 141t-150 386q0 122 43 222t117.5 165.5t173 101t211.5 35.5
q225 0 365.5 -136t140.5 -357zM379 612h416q-2 78 -57 140.5t-150 62.5t-150.5 -61.5t-58.5 -141.5z" />
    <glyph glyph-name="f" unicode="f" horiz-adv-x="663" 
d="M739 1413l-16 -227q-64 18 -121 18q-67 0 -94 -34t-27 -97v-65h217v-248h-217v-760h-329v760h-129v248h129v55q0 188 81 272q98 105 283 105q57 0 113 -7t83 -13z" />
    <glyph glyph-name="g" unicode="g" horiz-adv-x="1286" 
d="M1174 1010v-805q0 -157 -38.5 -260.5t-115.5 -175.5q-170 -160 -465 -160q-154 0 -285 48t-204 101l135 219q52 -40 154 -77t194 -37q161 0 237 80q62 69 62 200v33h-4q-109 -143 -318 -143q-94 0 -179 32.5t-152 93t-106.5 157t-39.5 214.5t39.5 214.5t106.5 157.5
t152 93.5t179 32.5q209 0 320 -147h4l-4 129h328zM856 528q0 105 -64.5 174.5t-170.5 69.5q-107 0 -172.5 -69.5t-65.5 -174.5q0 -106 65.5 -175.5t172.5 -69.5t171 69.5t64 175.5z" />
    <glyph glyph-name="h" unicode="h" horiz-adv-x="1206" 
d="M1108 596v-596h-330v530q0 53 -5 89t-20 71t-47 52.5t-81 17.5q-181 0 -181 -264v-496h-327v1413h327v-336l-2 -213q42 74 116.5 119t180.5 45q107 0 181 -32t114 -93t57 -135t17 -172z" />
    <glyph glyph-name="i" unicode="i" horiz-adv-x="552" 
d="M463 1296q0 -76 -52 -123t-135 -47t-134.5 47t-51.5 123q0 75 51.5 122.5t134.5 47.5t135 -47.5t52 -122.5zM440 1010v-1010h-327v1010h327z" />
    <glyph glyph-name="j" unicode="j" horiz-adv-x="552" 
d="M463 1296q0 -76 -52 -123t-135 -47t-134.5 47t-51.5 123q0 75 51.5 122.5t134.5 47.5t135 -47.5t52 -122.5zM440 1010v-985q0 -210 -84 -304q-100 -112 -280 -112q-49 0 -92 4.5t-62 8.5l-18 5l6 254q41 -12 92 -12q64 0 87.5 42t23.5 130v969h327z" />
    <glyph glyph-name="k" unicode="k" horiz-adv-x="1128" 
d="M760 631l399 -631h-377l-247 393l-91 -88v-305h-327v1413h327v-737l308 334h376z" />
    <glyph glyph-name="l" unicode="l" horiz-adv-x="559" 
d="M444 1413v-1413h-327v1413h327z" />
    <glyph glyph-name="m" unicode="m" horiz-adv-x="1789" 
d="M1690 608v-608h-330v549q0 46 -5 80t-18.5 65.5t-41 48.5t-68.5 17q-83 0 -123.5 -66t-40.5 -176v-518h-328v549q0 102 -30 156.5t-105 54.5q-83 0 -123.5 -66t-40.5 -176v-518h-327v1010h327l-2 -146l4 2q42 69 115 115.5t164 46.5q233 0 301 -184q55 93 132.5 138.5
t188.5 45.5q94 0 163 -31t109.5 -88t59.5 -131.5t19 -169.5z" />
    <glyph glyph-name="n" unicode="n" horiz-adv-x="1202" 
d="M1100 596v-596h-328v526q0 55 -5.5 93.5t-21.5 72.5t-48 51t-81 17q-180 0 -180 -260v-500h-327v1010h327l-2 -146h4q100 164 293 164q86 0 151 -22t106 -59.5t66.5 -93.5t35.5 -118t10 -139z" />
    <glyph glyph-name="o" unicode="o" horiz-adv-x="1220" 
d="M1169 502q0 -159 -73.5 -279.5t-199.5 -183t-286 -62.5t-286.5 62.5t-200.5 183t-74 279.5t74 280t200.5 183.5t286.5 62.5t286 -62.5t199.5 -183.5t73.5 -280zM840 508q0 115 -62.5 188.5t-167.5 73.5q-106 0 -167.5 -73.5t-61.5 -188.5t61.5 -188.5t167.5 -73.5
q105 0 167.5 73.5t62.5 188.5z" />
    <glyph glyph-name="p" unicode="p" horiz-adv-x="1286" 
d="M1237 504q0 -149 -57.5 -268t-167 -189t-252.5 -70q-219 0 -320 150v-498h-327v1381h311l-2 -129h4q124 147 336 147q214 0 344.5 -148.5t130.5 -375.5zM903 508q0 117 -65.5 189.5t-171.5 72.5q-105 0 -170.5 -72.5t-65.5 -189.5t65.5 -189.5t170.5 -72.5
q106 0 171.5 72.5t65.5 189.5z" />
    <glyph glyph-name="q" unicode="q" 
d="M1174 1010v-1381h-328v357l2 141h-4q-99 -150 -318 -150q-143 0 -252.5 70t-167 189t-57.5 268t57.5 267.5t167 187.5t252.5 69q212 0 336 -147h4l-4 129h312zM856 508q0 117 -64.5 189.5t-170.5 72.5t-172 -72.5t-66 -189.5t66 -189.5t172 -72.5t170.5 72.5t64.5 189.5z
" />
    <glyph glyph-name="r" unicode="r" horiz-adv-x="792" 
d="M791 1010l-19 -301h-14q-43 24 -119 24q-50 0 -90 -22t-62 -52q-51 -67 -51 -210v-449h-327v1010h327l-2 -144h4q83 162 250 162q30 0 56 -4.5t36 -9.5z" />
    <glyph glyph-name="s" unicode="s" horiz-adv-x="923" 
d="M879 311q0 -150 -119 -245q-116 -89 -309 -89q-120 0 -231.5 38.5t-194.5 117.5l122 195q61 -52 148.5 -87.5t150.5 -35.5q140 0 140 86q0 19 -14.5 35.5t-41.5 29t-46.5 20t-50.5 16.5t-32 9q-76 19 -143 48q-19 8 -36.5 17.5t-44 32t-45 49.5t-32.5 70.5t-14 94.5
q0 144 110 230.5t273 86.5q235 0 387 -125l-106 -192q-47 37 -121.5 67.5t-132.5 30.5q-121 0 -121 -74q0 -25 24.5 -45t51.5 -30t71 -23q76 -22 144 -47q81 -29 131 -76q82 -82 82 -205z" />
    <glyph glyph-name="t" unicode="t" horiz-adv-x="733" 
d="M711 1008v-248h-224v-363q0 -58 7 -83.5t22 -41.5q21 -24 78 -24q23 0 47.5 4.5t37.5 9.5l13 4l17 -256q-137 -33 -234 -33q-164 0 -246 95q-38 44 -54.5 112.5t-16.5 184.5v391h-144v248h144v274h329v-274h224z" />
    <glyph glyph-name="u" unicode="u" horiz-adv-x="1185" 
d="M1077 1010v-1010h-315l-2 115q-38 -54 -116.5 -96t-178.5 -42q-200 0 -289 119q-74 106 -74 303v611h328v-566q0 -95 33.5 -145.5t116.5 -50.5q85 0 127.5 60.5t42.5 164.5v537h327z" />
    <glyph glyph-name="v" unicode="v" horiz-adv-x="1118" 
d="M791 1010h337l-415 -1010h-307l-414 1010h342l229 -639z" />
    <glyph glyph-name="w" unicode="w" horiz-adv-x="1685" 
d="M1350 1010h331l-331 -1010h-310l-196 618l-199 -618h-309l-332 1010h332l178 -645l195 645h268l194 -645z" />
    <glyph glyph-name="x" unicode="x" horiz-adv-x="1159" 
d="M774 526l406 -526h-373l-227 336l-230 -336h-373l406 526l-363 484h371l189 -303l186 303h371z" />
    <glyph glyph-name="y" unicode="y" horiz-adv-x="1114" 
d="M791 1010h337l-450 -1106q-61 -148 -134 -219.5t-194 -71.5q-76 0 -146 12.5t-102 24.5l-32 12l65 242q72 -27 121 -27q24 0 37 2t30.5 17.5t30.5 46.5l37 88l-399 979h342l229 -650z" />
    <glyph glyph-name="z" unicode="z" horiz-adv-x="1015" 
d="M983 260v-260h-950v188l510 572h-488v248h903v-183l-503 -565h528z" />
    <glyph glyph-name="braceleft" unicode="{" horiz-adv-x="684" 
d="M600 -152v-157h-180q-156 0 -219.5 71t-63.5 232v360q0 99 -35.5 133.5t-89.5 34.5v207q25 0 44.5 6t39 22t30.5 51t11 87v360q0 162 64 234t219 72h180v-158h-70q-76 0 -103.5 -28t-27.5 -105v-375q0 -129 -40.5 -185t-122.5 -77v-15q53 -14 86.5 -38.5t55 -80.5
t21.5 -145v-374q0 -77 27.5 -104.5t103.5 -27.5h70z" />
    <glyph glyph-name="bar" unicode="|" horiz-adv-x="684" 
d="M453 1638v-1939h-222v1939h222z" />
    <glyph glyph-name="braceright" unicode="}" horiz-adv-x="684" 
d="M674 729v-207q-25 0 -44.5 -6t-39.5 -22.5t-31.5 -52t-11.5 -87.5v-360q0 -162 -63 -232.5t-218 -70.5h-182v157h70q76 0 103.5 27.5t27.5 104.5v374q0 129 41 186t123 78v15q-82 21 -123 77t-41 185v375q0 77 -27.5 105t-103.5 28h-70v158h182q155 0 218 -72t63 -234
v-360q0 -52 11.5 -87t31.5 -51t39.5 -22t44.5 -6z" />
    <glyph glyph-name="asciitilde" unicode="~" horiz-adv-x="1435" 
d="M1141 844l143 -174q-63 -93 -153 -152t-193 -59q-19 0 -37 1.5t-33 3.5t-31.5 6t-27.5 6.5t-26.5 9t-23 9t-22.5 10l-19 9.5t-18 9.5t-16 8.5q-39 20 -59.5 29.5t-59 21t-69.5 11.5q-53 0 -107.5 -36.5t-93.5 -92.5l-143 174q63 93 153 152t193 59q21 0 40.5 -1.5
t37.5 -5t32.5 -6.5t31.5 -9t26.5 -9.5t25.5 -11.5t21.5 -10.5t21 -11t17.5 -9.5q120 -61 188 -61q53 0 107.5 36.5t93.5 92.5z" />
    <glyph glyph-name="nbspace" unicode="&#xa0;" horiz-adv-x="403" 
 />
    <glyph glyph-name="exclamdown" unicode="&#xa1;" horiz-adv-x="667" 
d="M526 856q0 -82 -53 -129t-139 -47q-88 0 -141.5 47t-53.5 129t53.5 128t141.5 46q86 0 139 -46t53 -128zM475 575l31 -978h-344l28 978h285z" />
    <glyph glyph-name="cent" unicode="&#xa2;" 
d="M1042 440l64 -233q-18 -25 -98 -61t-174 -44v-163h-166v161q-140 13 -250.5 76t-178 179t-67.5 268q0 114 39 210t106.5 161.5t157 105.5t193.5 49v162h166v-164q85 -8 159 -37t105 -59l-66 -240q-89 67 -198 80v-529q61 4 120 28.5t88 49.5zM668 377v506
q-83 -22 -132 -90.5t-49 -163.5t48 -162t133 -90z" />
    <glyph glyph-name="sterling" unicode="&#xa3;" 
d="M1186 244v-244h-1065v244h235q15 23 29 86t16 108q1 26 0 62.5t-3 59.5l-1 24h-215v188h201l-29 102q-28 98 -28 185q0 81 32.5 152.5t85.5 119.5q115 103 312 103q232 0 374 -146l-112 -190q-1 1 -8.5 8t-12 10.5t-15.5 12t-19 14t-21.5 14t-25.5 13.5t-28 11.5
t-31.5 10t-34 6t-36.5 2.5q-88 0 -128 -48.5t-40 -117.5q0 -23 3 -47.5t8 -47.5t9 -39.5t9 -33.5t6 -20l21 -74h301v-188h-287q1 -10 2 -26t2 -55t0 -65q-2 -44 -16 -107.5t-27 -86.5h537z" />
    <glyph glyph-name="currency" unicode="&#xa4;" 
d="M1120 367l99 -234l-15 -15q-14 -14 -28 -25t-40 -29.5t-58 -32t-72 -27t-93 -20.5t-112 -7q-219 0 -367 123.5t-201 366.5h-131v190h105q-2 31 -2 60v55h-103v189h136q23 108 78 201t128 153q143 119 365 119q120 0 218.5 -31t148.5 -64l-76 -260q-109 103 -271 103
q-217 0 -258 -221h394v-189h-430q-3 -30 -3 -55l3 -60h430v-190h-394q14 -103 81.5 -163t174.5 -60q66 0 128 22.5t94 45t71 55.5z" />
    <glyph glyph-name="yen" unicode="&#xa5;" 
d="M907 1413h361l-338 -582h235v-190h-348l-18 -66v-53h366v-188h-368v-334h-314v334h-368v188h368v53l-18 66h-350v190h237l-340 582h363l266 -555z" />
    <glyph glyph-name="brokenbar" unicode="&#xa6;" horiz-adv-x="684" 
d="M453 1638v-647h-222v647h222zM453 647v-647h-222v647h222z" />
    <glyph glyph-name="section" unicode="&#xa7;" horiz-adv-x="1357" 
d="M1182 518q0 -57 -19 -107t-46 -80t-53.5 -52t-45.5 -31l-19 -8q42 -22 88 -94.5t46 -172.5q0 -89 -39 -159.5t-106 -114.5t-151 -67t-178 -23q-341 0 -483 237l180 162q38 -74 126 -126t177 -52q88 0 132.5 34.5t44.5 94.5q0 55 -43 96t-129 76l-209 86
q-114 46 -186 129.5t-72 204.5q0 69 24.5 127.5t59 92t60 51t40.5 22.5q-5 3 -13 9.5t-28.5 29t-36 48t-28.5 68t-13 88.5q0 110 61 190.5t157.5 118.5t213.5 38q303 0 451 -207l-152 -160q-57 75 -133 115.5t-149 40.5t-115.5 -30.5t-42.5 -90.5q0 -30 13.5 -53.5t44 -44.5
t58.5 -35t79 -35l165 -68q117 -49 193 -135.5t76 -212.5zM918 475q0 107 -119 156l-264 108q-35 -13 -59.5 -51t-24.5 -90q0 -53 29 -88.5t91 -60.5l263 -107q39 12 61.5 46.5t22.5 86.5z" />
    <glyph glyph-name="dieresis" unicode="&#xa8;" horiz-adv-x="854" 
d="M752 1264q0 -61 -39.5 -98.5t-98.5 -37.5q-60 0 -99.5 37.5t-39.5 98.5t40 99t99 38t98.5 -38t39.5 -99zM379 1264q0 -61 -39 -98.5t-98 -37.5q-60 0 -100 38t-40 98q0 61 40 99t100 38q59 0 98 -38t39 -99z" />
    <glyph glyph-name="copyright" unicode="&#xa9;" horiz-adv-x="1574" 
d="M1516 707q0 -202 -96.5 -369t-264 -262.5t-369.5 -95.5q-151 0 -285.5 56.5t-231.5 153t-153.5 231.5t-56.5 286t56.5 286t153.5 231.5t231.5 153t285.5 56.5q202 0 369.5 -95.5t264 -262.5t96.5 -369zM1405 707q0 128 -48 243t-130 197t-197 130t-244 48
q-171 0 -313 -81.5t-223.5 -223.5t-81.5 -313t81.5 -313.5t223.5 -224t313 -81.5q129 0 244 48t197 130.5t130 197.5t48 243zM1063 528l74 -133q-26 -28 -60.5 -52.5t-105 -49.5t-150.5 -25q-191 0 -316.5 122.5t-125.5 316.5t125.5 316t316.5 122q112 0 189 -36.5
t116 -80.5l-73 -135q-30 34 -88.5 65t-139.5 31q-113 0 -189.5 -72.5t-76.5 -205.5q0 -132 76.5 -205.5t189.5 -73.5q142 0 238 96z" />
    <glyph glyph-name="ordfeminine" unicode="&#xaa;" horiz-adv-x="770" 
d="M684 739v-336h-205l-6 66q-71 -76 -182 -76q-89 0 -157 49t-68 146q0 50 22.5 87.5t60 57.5t78 29.5t86.5 11.5l156 6v8q0 93 -125 93q-52 0 -107.5 -17.5t-86.5 -36.5l-58 136q48 24 123.5 43.5t153.5 19.5q164 0 241 -74q74 -68 74 -213zM469 569v103l-98 -6
q-86 -4 -86 -70q0 -72 88 -72q23 0 47 11t36 23z" />
    <glyph glyph-name="guillemotleft" unicode="&#xab;" horiz-adv-x="1165" 
d="M784 504l242 -332l-160 -111l-325 443l325 444l160 -110zM371 504l241 -332l-159 -111l-326 443l326 444l159 -110z" />
    <glyph glyph-name="logicalnot" unicode="&#xac;" horiz-adv-x="1437" 
d="M1280 1020v-684h-240v444h-884v240h1124z" />
    <glyph glyph-name="uni00AD" unicode="&#xad;" horiz-adv-x="694" 
d="M633 678v-256h-572v256h572z" />
    <glyph glyph-name="registered" unicode="&#xae;" horiz-adv-x="1574" 
d="M1516 707q0 -202 -96.5 -369t-264 -262.5t-369.5 -95.5q-151 0 -285.5 56.5t-231.5 153t-153.5 231.5t-56.5 286t56.5 286t153.5 231.5t231.5 153t285.5 56.5q202 0 369.5 -95.5t264 -262.5t96.5 -369zM1405 707q0 128 -48 243t-130 197t-197 130t-244 48
q-171 0 -313 -81.5t-223.5 -223.5t-81.5 -313t81.5 -313.5t223.5 -224t313 -81.5q129 0 244 48t197 130.5t130 197.5t48 243zM936 637l211 -356h-207l-178 333h-84v-333h-174v852h301q141 0 223 -68t82 -188q0 -57 -17 -102.5t-45 -72.5t-55.5 -42t-56.5 -23zM930 872
q0 68 -41.5 93.5t-112.5 25.5h-98v-235h98q71 0 112.5 25t41.5 91z" />
    <glyph glyph-name="macron" unicode="&#xaf;" horiz-adv-x="854" 
d="M752 1346v-158h-650v158h650z" />
    <glyph glyph-name="degree" unicode="&#xb0;" horiz-adv-x="882" 
d="M776 1176q0 -138 -98 -233t-236 -95q-139 0 -237.5 95t-98.5 233q0 140 98.5 234.5t237.5 94.5q138 0 236 -94.5t98 -234.5zM627 1176q0 75 -54.5 129.5t-130.5 54.5q-77 0 -129.5 -54t-52.5 -130q0 -75 52.5 -130t129.5 -55q76 0 130.5 55.5t54.5 129.5z" />
    <glyph glyph-name="plusminus" unicode="&#xb1;" horiz-adv-x="1435" 
d="M1280 1014v-240h-438v-354h-246v354h-440v240h440v352h246v-352h438zM1280 348v-239h-1124v239h1124z" />
    <glyph glyph-name="twosuperior" unicode="&#xb2;" horiz-adv-x="847" 
d="M770 764v-180h-655l-27 147l299 266q72 64 100.5 104.5t28.5 80.5q0 44 -32 70t-89 26q-125 0 -215 -129l-102 143q7 51 103.5 110.5t232.5 59.5q148 0 237.5 -69.5t89.5 -182.5q0 -27 -6 -54t-12 -46.5t-23.5 -45t-24.5 -37.5t-32.5 -37t-30.5 -30.5t-34.5 -31.5
t-30.5 -27l-152 -137h375z" />
    <glyph glyph-name="threesuperior" unicode="&#xb3;" horiz-adv-x="847" 
d="M778 842q0 -83 -50 -146.5t-126.5 -95t-163.5 -31.5q-241 0 -350 172l121 127q33 -55 92 -85.5t117 -30.5q56 0 95.5 27t39.5 73q0 48 -36 75t-95 27l-76 2v162h82q49 0 76.5 24.5t27.5 67.5q0 36 -29 58t-81 22q-118 0 -201 -98l-94 137q105 133 309 133
q129 0 222.5 -64t93.5 -169q0 -129 -115 -187h-2q66 -22 104.5 -75t38.5 -125z" />
    <glyph glyph-name="acute" unicode="&#xb4;" horiz-adv-x="854" 
d="M369 1413h280l-211 -297h-231z" />
    <glyph glyph-name="mu" unicode="&#xb5;" horiz-adv-x="1191" 
d="M1083 1008v-1008h-315l-4 111q-33 -42 -99 -76.5t-135 -34.5q-40 0 -70 11.5t-42 25.5l12 -408h-324v1379h328v-551q0 -102 34.5 -154.5t117.5 -52.5q168 0 168 211v547h329z" />
    <glyph glyph-name="paragraph" unicode="&#xb6;" horiz-adv-x="1357" 
d="M1247 1413v-213h-92v-1571h-219v1571h-191v-1571h-217v871q-200 5 -325 122t-125 334q0 223 129.5 340t361.5 117h678z" />
    <glyph glyph-name="periodcentered" unicode="&#xb7;" horiz-adv-x="858" 
d="M618 596q0 -78 -51.5 -126t-136.5 -48q-86 0 -138 48t-52 126t52 126t138 48q85 0 136.5 -48t51.5 -126z" />
    <glyph glyph-name="cedilla" unicode="&#xb8;" horiz-adv-x="870" 
d="M430 0h207l-156 -303h-248z" />
    <glyph glyph-name="onesuperior" unicode="&#xb9;" horiz-adv-x="847" 
d="M604 1442v-864h-231v700h-162v164h393z" />
    <glyph glyph-name="ordmasculine" unicode="&#xba;" horiz-adv-x="864" 
d="M778 709q0 -142 -98 -229t-248 -87q-151 0 -248.5 86.5t-97.5 229.5q0 144 97 230.5t249 86.5q151 0 248.5 -86.5t97.5 -230.5zM561 713q0 70 -36.5 109.5t-92.5 39.5t-93.5 -39.5t-37.5 -109.5t37.5 -111t93.5 -41t92.5 41t36.5 111z" />
    <glyph glyph-name="guillemotright" unicode="&#xbb;" horiz-adv-x="1165" 
d="M713 948l325 -444l-325 -443l-158 111l240 332l-242 334zM299 948l326 -444l-326 -443l-160 111l242 332l-242 334z" />
    <glyph glyph-name="onequarter" unicode="&#xbc;" horiz-adv-x="1935" 
d="M1829 338v-172h-119v-166h-233v166h-455v147l444 559h244v-534h119zM1243 1450l141 -84l-880 -1415l-142 84zM526 1413v-835h-233v671h-162v164h395zM1245 338h236v305z" />
    <glyph glyph-name="onehalf" unicode="&#xbd;" horiz-adv-x="1937" 
d="M1823 182v-182h-654l-30 141l286 250q71 61 104.5 104.5t33.5 86.5q0 47 -32.5 74.5t-86.5 27.5q-107 0 -217 -123l-97 158q24 47 116 98t218 51q145 0 233.5 -69.5t88.5 -182.5q0 -41 -11.5 -79.5t-26 -65t-41.5 -57.5t-44.5 -47t-48.5 -43q-10 -9 -15 -13l-149 -129
h373zM1223 1450l141 -84l-879 -1415l-141 84zM512 1413v-850h-231v686h-164v164h395z" />
    <glyph glyph-name="threequarters" unicode="&#xbe;" horiz-adv-x="1935" 
d="M1829 338v-172h-119v-166h-233v166h-455v147l444 559h244v-534h119zM778 842q0 -83 -50 -146.5t-126.5 -95t-163.5 -31.5q-241 0 -350 172l121 127q33 -55 92 -85.5t117 -30.5q56 0 95.5 27t39.5 73q0 48 -36 75t-95 27l-76 2v162h82q49 0 76.5 24.5t27.5 67.5
q0 36 -29 58t-81 22q-118 0 -201 -98l-94 137q105 133 309 133q129 0 222.5 -64t93.5 -169q0 -129 -115 -187h-2q66 -22 104.5 -75t38.5 -125zM1348 1450l141 -84l-881 -1415l-141 84zM1245 338h236v305z" />
    <glyph glyph-name="questiondown" unicode="&#xbf;" horiz-adv-x="1093" 
d="M807 856q0 -82 -53.5 -129t-139.5 -47q-88 0 -141 47t-53 129t53 129t141 47q86 0 139.5 -47t53.5 -129zM895 -37l96 -229q-23 -24 -52.5 -45.5t-82.5 -50t-132 -45.5t-171 -17q-194 0 -317 106t-123 257q0 61 11.5 109.5t35.5 87.5t46 63.5t58 58.5q35 31 103 79t84 66
q22 32 22 76l2 96h277l2 -133q1 -91 -29 -147.5t-98 -104.5l-125 -90q-43 -31 -66.5 -60t-23.5 -67q0 -63 51 -98t145 -35q85 0 160 35.5t127 87.5z" />
    <glyph glyph-name="Agrave" unicode="&#xc0;" horiz-adv-x="1392" 
d="M664 1794l161 -297h-233l-209 297h281zM868 1415l533 -1415h-361l-100 285h-504l-100 -285h-344l532 1415h344zM512 543h352l-176 508z" />
    <glyph glyph-name="Aacute" unicode="&#xc1;" horiz-adv-x="1392" 
d="M729 1794h281l-209 -297h-234zM868 1415l533 -1415h-361l-100 285h-504l-100 -285h-344l532 1415h344zM512 543h352l-176 508z" />
    <glyph glyph-name="Acircumflex" unicode="&#xc2;" horiz-adv-x="1392" 
d="M852 1794l176 -297h-221l-111 184l-110 -184h-221l176 297h311zM868 1415l533 -1415h-361l-100 285h-504l-100 -285h-344l532 1415h344zM512 543h352l-176 508z" />
    <glyph glyph-name="Atilde" unicode="&#xc3;" horiz-adv-x="1392" 
d="M926 1769l141 -20q-3 -96 -72 -166t-161 -70q-14 0 -26.5 1t-24 3t-20.5 4t-19.5 6t-16.5 6.5t-15 7.5t-12.5 6.5t-12.5 7t-11 6.5t-23 13.5t-31 17t-28.5 10.5t-34.5 6q-32 0 -57 -23.5t-35 -64.5l-141 20q3 97 72 166.5t161 69.5q20 0 39.5 -2.5t31.5 -5t28.5 -9t22 -9
t20.5 -11t16 -8.5q4 -2 23.5 -13.5t30 -17t29 -11.5t34.5 -6q32 0 56.5 23t35.5 63zM868 1415l533 -1415h-361l-100 285h-504l-100 -285h-344l532 1415h344zM512 543h352l-176 508z" />
    <glyph glyph-name="Adieresis" unicode="&#xc4;" horiz-adv-x="1392" 
d="M1018 1638q0 -61 -40 -99t-99 -38t-98.5 38t-39.5 99t39.5 99.5t98.5 38.5t99 -38.5t40 -99.5zM651 1638q0 -61 -39 -99t-98 -38q-61 0 -100 38t-39 99t39.5 99.5t99.5 38.5q59 0 98 -38.5t39 -99.5zM868 1415l533 -1415h-361l-100 285h-504l-100 -285h-344l532 1415h344
zM512 543h352l-176 508z" />
    <glyph glyph-name="Aring" unicode="&#xc5;" horiz-adv-x="1392" 
d="M932 1665q0 -96 -68 -152.5t-168 -56.5q-101 0 -168 56t-67 153q0 98 67 154.5t168 56.5q100 0 168 -56.5t68 -154.5zM868 1415l533 -1415h-361l-100 285h-504l-100 -285h-344l532 1415h344zM801 1665q0 45 -29.5 72.5t-75.5 27.5t-75 -27.5t-29 -72.5t29 -71.5t75 -26.5
q47 0 76 26.5t29 71.5zM512 543h352l-176 508z" />
    <glyph glyph-name="AE" unicode="&#xc6;" horiz-adv-x="1898" 
d="M1825 268v-268h-875v287h-493l-162 -287h-373l854 1413h1030v-264h-526v-285h494v-264h-494v-332h545zM602 545h348v608h-6z" />
    <glyph glyph-name="Ccedilla" unicode="&#xc7;" horiz-adv-x="1331" 
d="M1198 426l111 -258q-67 -69 -172 -122.5t-244 -61.5l-129 -291h-299l164 301q-80 13 -158 46t-154 92.5t-133 137.5t-92 191t-35 244q0 167 58 306t158.5 230.5t235.5 142t290 50.5q102 0 191.5 -18.5t148 -47.5t93 -52t52.5 -42l-102 -275q-32 41 -137.5 94.5
t-227.5 53.5q-185 0 -304.5 -117t-119.5 -319q0 -200 122 -317.5t302 -117.5q123 0 219.5 42t161.5 108z" />
    <glyph glyph-name="Egrave" unicode="&#xc8;" horiz-adv-x="1138" 
d="M594 1794l162 -297h-234l-209 297h281zM1063 268v-268h-934v1413h915v-264h-585v-289h553v-264h-553v-328h604z" />
    <glyph glyph-name="Eacute" unicode="&#xc9;" horiz-adv-x="1138" 
d="M567 1794h281l-209 -297h-233zM1063 268v-268h-934v1413h915v-264h-585v-289h553v-264h-553v-328h604z" />
    <glyph glyph-name="Ecircumflex" unicode="&#xca;" horiz-adv-x="1138" 
d="M741 1794l177 -297h-220l-110 184l-113 -184h-219l176 297h309zM1063 268v-268h-934v1413h915v-264h-585v-289h553v-264h-553v-328h604z" />
    <glyph glyph-name="Edieresis" unicode="&#xcb;" horiz-adv-x="1138" 
d="M911 1638q0 -61 -39 -99t-100 -38q-59 0 -98 38t-39 99t39 99.5t98 38.5q60 0 99.5 -38.5t39.5 -99.5zM543 1638q0 -61 -40 -99t-100 -38q-59 0 -98 38t-39 99t39 99.5t98 38.5t99.5 -38.5t40.5 -99.5zM1063 268v-268h-934v1413h915v-264h-585v-289h553v-264h-553v-328
h604z" />
    <glyph glyph-name="Igrave" unicode="&#xcc;" horiz-adv-x="589" 
d="M295 1794l162 -297h-234l-209 297h281zM461 1413v-1413h-332v1413h332z" />
    <glyph glyph-name="Iacute" unicode="&#xcd;" horiz-adv-x="589" 
d="M295 1794h280l-210 -297h-232zM461 1413v-1413h-332v1413h332z" />
    <glyph glyph-name="Icircumflex" unicode="&#xce;" horiz-adv-x="589" 
d="M451 1794l174 -297h-219l-111 184l-111 -184h-221l176 297h312zM461 1413v-1413h-332v1413h332z" />
    <glyph glyph-name="Idieresis" unicode="&#xcf;" horiz-adv-x="589" 
d="M618 1642q0 -61 -40 -99t-99 -38t-98 38t-39 99t39 99.5t98 38.5t99 -38.5t40 -99.5zM248 1642q0 -61 -39 -99t-98 -38q-60 0 -100 38t-40 99t40.5 99.5t99.5 38.5t98 -38.5t39 -99.5zM461 1413v-1413h-332v1413h332z" />
    <glyph glyph-name="Eth" unicode="&#xd0;" horiz-adv-x="1439" 
d="M1382 707q0 -347 -229 -539q-201 -168 -545 -168h-479v618h-117v218h117v577h479q346 0 545 -170q229 -189 229 -536zM1047 707q0 210 -125 331q-108 101 -295 101h-168v-303h278v-209h-278v-346h168q189 0 295 102q125 117 125 324z" />
    <glyph glyph-name="Ntilde" unicode="&#xd1;" horiz-adv-x="1536" 
d="M997 1769l142 -20q-3 -95 -72.5 -165.5t-161.5 -70.5q-15 0 -29.5 1.5t-25.5 3.5t-23.5 6t-19.5 6t-18 8t-15 8t-14.5 8t-11.5 7q-2 1 -23 13.5t-31 17t-28.5 10.5t-34.5 6q-33 0 -57 -23t-35 -65l-142 20q3 97 72.5 166.5t161.5 69.5q20 0 39 -2.5t31.5 -5.5t28.5 -9
t22 -9t20 -10.5t16 -8.5q4 -2 23 -13.5t30 -17t29 -11.5t33 -6q34 0 58.5 23t35.5 63zM1407 1413v-1413h-340l-621 958q7 -169 7 -319v-639h-324v1413h354l607 -950q-7 159 -7 309v641h324z" />
    <glyph glyph-name="Ograve" unicode="&#xd2;" horiz-adv-x="1613" 
d="M762 1794l162 -297h-234l-209 297h281zM1556 705q0 -168 -58 -306.5t-159 -230.5t-238 -142.5t-294 -50.5q-211 0 -380 86t-269.5 253.5t-100.5 390.5q0 168 58 306.5t159.5 231t238.5 143t294 50.5t294 -50.5t238 -143t159 -231t58 -306.5zM1221 713q0 198 -117 319
t-297 121t-297 -120.5t-117 -319.5t117 -321t297 -122t297 122t117 321z" />
    <glyph glyph-name="Oacute" unicode="&#xd3;" horiz-adv-x="1613" 
d="M854 1794h279l-209 -297h-234zM1556 705q0 -168 -58 -306.5t-159 -230.5t-238 -142.5t-294 -50.5q-211 0 -380 86t-269.5 253.5t-100.5 390.5q0 168 58 306.5t159.5 231t238.5 143t294 50.5t294 -50.5t238 -143t159 -231t58 -306.5zM1221 713q0 198 -117 319t-297 121
t-297 -120.5t-117 -319.5t117 -321t297 -122t297 122t117 321z" />
    <glyph glyph-name="Ocircumflex" unicode="&#xd4;" horiz-adv-x="1613" 
d="M963 1794l176 -297h-221l-111 184l-111 -184h-221l176 297h312zM1556 705q0 -168 -58 -306.5t-159 -230.5t-238 -142.5t-294 -50.5q-211 0 -380 86t-269.5 253.5t-100.5 390.5q0 168 58 306.5t159.5 231t238.5 143t294 50.5t294 -50.5t238 -143t159 -231t58 -306.5z
M1221 713q0 198 -117 319t-297 121t-297 -120.5t-117 -319.5t117 -321t297 -122t297 122t117 321z" />
    <glyph glyph-name="Otilde" unicode="&#xd5;" horiz-adv-x="1613" 
d="M1036 1769l142 -20q-3 -95 -72.5 -165.5t-161.5 -70.5q-14 0 -26.5 1t-24 3t-20.5 4t-19.5 6t-16.5 6.5t-15 7.5t-12.5 6.5t-12.5 7t-11 6.5q-3 2 -23 13.5t-30 16.5t-28.5 11t-34.5 6q-32 0 -57 -23.5t-35 -64.5l-142 20q3 97 72.5 166.5t161.5 69.5q20 0 39 -2.5
t31.5 -5.5t28.5 -9t22 -9t20 -10.5t16 -8.5q4 -2 23.5 -13.5t30 -17t29 -11.5t34.5 -6q32 0 56.5 23t35.5 63zM1556 705q0 -168 -58 -306.5t-159 -230.5t-238 -142.5t-294 -50.5q-211 0 -380 86t-269.5 253.5t-100.5 390.5q0 168 58 306.5t159.5 231t238.5 143t294 50.5
t294 -50.5t238 -143t159 -231t58 -306.5zM1221 713q0 198 -117 319t-297 121t-297 -120.5t-117 -319.5t117 -321t297 -122t297 122t117 321z" />
    <glyph glyph-name="Odieresis" unicode="&#xd6;" horiz-adv-x="1613" 
d="M1130 1638q0 -61 -40 -99t-99 -38t-98 38t-39 99t39 99.5t98 38.5t99 -38.5t40 -99.5zM762 1638q0 -61 -40 -99t-99 -38t-98.5 38t-39.5 99t39.5 99.5t98.5 38.5t99 -38.5t40 -99.5zM1556 705q0 -168 -58 -306.5t-159 -230.5t-238 -142.5t-294 -50.5q-211 0 -380 86
t-269.5 253.5t-100.5 390.5q0 168 58 306.5t159.5 231t238.5 143t294 50.5t294 -50.5t238 -143t159 -231t58 -306.5zM1221 713q0 198 -117 319t-297 121t-297 -120.5t-117 -319.5t117 -321t297 -122t297 122t117 321z" />
    <glyph glyph-name="multiply" unicode="&#xd7;" horiz-adv-x="1435" 
d="M891 707l379 -377l-174 -176l-377 376l-379 -376l-172 176l379 377l-379 374l172 176l379 -376l377 376l174 -176z" />
    <glyph glyph-name="Oslash" unicode="&#xd8;" horiz-adv-x="1613" 
d="M1556 705q0 -168 -58 -306.5t-159 -230.5t-238 -142.5t-294 -50.5q-260 0 -449 129l-151 -153l-148 143l148 150q-150 190 -150 461q0 168 58 306.5t159.5 231t238.5 143t294 50.5q259 0 448 -129l154 155l147 -143l-149 -152q149 -189 149 -462zM444 483l594 604
q-101 66 -231 66q-180 0 -297 -120.5t-117 -319.5q0 -128 51 -230zM1221 713q0 123 -47 219l-590 -600q100 -62 223 -62q180 0 297 122t117 321z" />
    <glyph glyph-name="Ugrave" unicode="&#xd9;" horiz-adv-x="1421" 
d="M688 1794l164 -297h-234l-210 297h280zM1303 1413v-823q0 -153 -31.5 -259t-104.5 -186q-155 -168 -456 -168t-459 168q-72 80 -102.5 186t-30.5 259v823h334v-823q0 -85 11 -140.5t44 -95.5q75 -88 203 -88q127 0 202 88q33 40 44.5 96t11.5 140v823h334z" />
    <glyph glyph-name="Uacute" unicode="&#xda;" horiz-adv-x="1421" 
d="M731 1794h281l-209 -297h-234zM1303 1413v-823q0 -153 -31.5 -259t-104.5 -186q-155 -168 -456 -168t-459 168q-72 80 -102.5 186t-30.5 259v823h334v-823q0 -85 11 -140.5t44 -95.5q75 -88 203 -88q127 0 202 88q33 40 44.5 96t11.5 140v823h334z" />
    <glyph glyph-name="Ucircumflex" unicode="&#xdb;" horiz-adv-x="1421" 
d="M866 1794l174 -297h-219l-110 184l-111 -184h-221l176 297h311zM1303 1413v-823q0 -153 -31.5 -259t-104.5 -186q-155 -168 -456 -168t-459 168q-72 80 -102.5 186t-30.5 259v823h334v-823q0 -85 11 -140.5t44 -95.5q75 -88 203 -88q127 0 202 88q33 40 44.5 96t11.5 140
v823h334z" />
    <glyph glyph-name="Udieresis" unicode="&#xdc;" horiz-adv-x="1421" 
d="M1034 1638q0 -61 -40 -99t-99 -38t-98 38t-39 99t39 99.5t98 38.5t99 -38.5t40 -99.5zM664 1638q0 -61 -39.5 -99t-98.5 -38t-99 38t-40 99t40 99.5t99 38.5t98.5 -38.5t39.5 -99.5zM1303 1413v-823q0 -153 -31.5 -259t-104.5 -186q-155 -168 -456 -168t-459 168
q-72 80 -102.5 186t-30.5 259v823h334v-823q0 -85 11 -140.5t44 -95.5q75 -88 203 -88q127 0 202 88q33 40 44.5 96t11.5 140v823h334z" />
    <glyph glyph-name="Yacute" unicode="&#xdd;" horiz-adv-x="1269" 
d="M651 1794h281l-211 -297h-234zM924 1413h368l-491 -842v-571h-332v571l-492 842h369l289 -563z" />
    <glyph glyph-name="Thorn" unicode="&#xde;" horiz-adv-x="1179" 
d="M1137 739q0 -215 -148 -338q-128 -106 -368 -106h-160v-295h-332v1413h332v-227h160q239 0 368 -107q148 -126 148 -340zM799 739q0 102 -70 152q-52 39 -158 39h-112v-381h112q103 0 158 41q70 50 70 149z" />
    <glyph glyph-name="germandbls" unicode="&#xdf;" horiz-adv-x="1247" 
d="M1198 422q0 -214 -143.5 -327t-382.5 -113q-30 0 -65.5 4.5t-56.5 9.5l-20 4l17 236q39 -11 88 -11q105 0 173.5 53t68.5 162q0 112 -69.5 169t-184.5 57h-58v227h47q93 0 138 44t45 120q0 70 -50.5 112.5t-128.5 42.5q-94 0 -139 -63q-33 -49 -33 -170v-979h-327v893
q0 202 49 303q49 104 149 166q116 72 310 72q116 0 206.5 -29.5t143 -79t79.5 -109t27 -124.5q0 -114 -57.5 -188t-118.5 -89v-4q125 -28 209 -131.5t84 -257.5z" />
    <glyph glyph-name="agrave" unicode="&#xe0;" horiz-adv-x="1107" 
d="M528 1413l162 -297h-233l-209 297h280zM1014 569v-569h-314l-6 106q-26 -26 -42.5 -40t-54 -39t-85.5 -37.5t-106 -12.5q-69 0 -133 19t-117 57t-85 101.5t-32 144.5t34.5 141.5t93 95t124.5 52t141 20.5l254 10v23q0 79 -54 120.5t-153 41.5q-87 0 -173.5 -29
t-135.5 -61l-86 213q204 102 432 102q251 0 377 -117q61 -58 91 -138.5t30 -203.5zM688 279v165l-162 -10q-76 -3 -117.5 -34.5t-41.5 -88.5q0 -58 42.5 -91.5t110.5 -33.5q59 0 104 29.5t64 63.5z" />
    <glyph glyph-name="aacute" unicode="&#xe1;" horiz-adv-x="1107" 
d="M545 1413h278l-209 -297h-233zM1014 569v-569h-314l-6 106q-26 -26 -42.5 -40t-54 -39t-85.5 -37.5t-106 -12.5q-69 0 -133 19t-117 57t-85 101.5t-32 144.5t34.5 141.5t93 95t124.5 52t141 20.5l254 10v23q0 79 -54 120.5t-153 41.5q-87 0 -173.5 -29t-135.5 -61
l-86 213q204 102 432 102q251 0 377 -117q61 -58 91 -138.5t30 -203.5zM688 279v165l-162 -10q-76 -3 -117.5 -34.5t-41.5 -88.5q0 -58 42.5 -91.5t110.5 -33.5q59 0 104 29.5t64 63.5z" />
    <glyph glyph-name="acircumflex" unicode="&#xe2;" horiz-adv-x="1107" 
d="M702 1413l177 -297h-222l-110 189l-111 -189h-219l174 297h311zM1014 569v-569h-314l-6 106q-26 -26 -42.5 -40t-54 -39t-85.5 -37.5t-106 -12.5q-69 0 -133 19t-117 57t-85 101.5t-32 144.5t34.5 141.5t93 95t124.5 52t141 20.5l254 10v23q0 79 -54 120.5t-153 41.5
q-87 0 -173.5 -29t-135.5 -61l-86 213q204 102 432 102q251 0 377 -117q61 -58 91 -138.5t30 -203.5zM688 279v165l-162 -10q-76 -3 -117.5 -34.5t-41.5 -88.5q0 -58 42.5 -91.5t110.5 -33.5q59 0 104 29.5t64 63.5z" />
    <glyph glyph-name="atilde" unicode="&#xe3;" horiz-adv-x="1107" 
d="M797 1393l139 -21q-1 -96 -69.5 -165.5t-161.5 -69.5q-20 0 -39.5 2.5t-31.5 5t-28.5 9t-22 9t-20.5 11t-16 8.5q-4 2 -30.5 18t-46.5 23.5t-40 7.5q-33 0 -57 -23.5t-35 -64.5l-141 20q3 97 72 166.5t161 69.5q20 0 39.5 -2.5t31.5 -5t28.5 -9t22 -9t20.5 -11t16 -8.5
q3 -2 15 -9.5t18 -11.5t18.5 -10t21 -9.5t20 -6t21.5 -2.5q34 0 59.5 23.5t35.5 64.5zM1014 569v-569h-314l-6 106q-26 -26 -42.5 -40t-54 -39t-85.5 -37.5t-106 -12.5q-69 0 -133 19t-117 57t-85 101.5t-32 144.5t34.5 141.5t93 95t124.5 52t141 20.5l254 10v23
q0 79 -54 120.5t-153 41.5q-87 0 -173.5 -29t-135.5 -61l-86 213q204 102 432 102q251 0 377 -117q61 -58 91 -138.5t30 -203.5zM688 279v165l-162 -10q-76 -3 -117.5 -34.5t-41.5 -88.5q0 -58 42.5 -91.5t110.5 -33.5q59 0 104 29.5t64 63.5z" />
    <glyph glyph-name="adieresis" unicode="&#xe4;" horiz-adv-x="1107" 
d="M862 1264q0 -61 -39 -98.5t-100 -37.5q-59 0 -98 37.5t-39 98.5t39 99t98 38q61 0 100 -38t39 -99zM496 1264q0 -61 -39.5 -98.5t-98.5 -37.5q-60 0 -99.5 37.5t-39.5 98.5t40 99t99 38t98.5 -38t39.5 -99zM1014 569v-569h-314l-6 106q-26 -26 -42.5 -40t-54 -39
t-85.5 -37.5t-106 -12.5q-69 0 -133 19t-117 57t-85 101.5t-32 144.5t34.5 141.5t93 95t124.5 52t141 20.5l254 10v23q0 79 -54 120.5t-153 41.5q-87 0 -173.5 -29t-135.5 -61l-86 213q204 102 432 102q251 0 377 -117q61 -58 91 -138.5t30 -203.5zM688 279v165l-162 -10
q-76 -3 -117.5 -34.5t-41.5 -88.5q0 -58 42.5 -91.5t110.5 -33.5q59 0 104 29.5t64 63.5z" />
    <glyph glyph-name="aring" unicode="&#xe5;" horiz-adv-x="1107" 
d="M776 1317q0 -94 -65.5 -151.5t-165.5 -57.5t-167 57.5t-67 151.5q0 95 67 153t167 58t165.5 -58t65.5 -153zM1014 569v-569h-314l-6 106q-26 -26 -42.5 -40t-54 -39t-85.5 -37.5t-106 -12.5q-69 0 -133 19t-117 57t-85 101.5t-32 144.5t34.5 141.5t93 95t124.5 52
t141 20.5l254 10v23q0 79 -54 120.5t-153 41.5q-87 0 -173.5 -29t-135.5 -61l-86 213q204 102 432 102q251 0 377 -117q61 -58 91 -138.5t30 -203.5zM645 1317q0 43 -27 71.5t-73 28.5q-48 0 -75.5 -28.5t-27.5 -71.5q0 -42 27.5 -70t75.5 -28q46 0 73 28.5t27 69.5z
M688 279v165l-162 -10q-76 -3 -117.5 -34.5t-41.5 -88.5q0 -58 42.5 -91.5t110.5 -33.5q59 0 104 29.5t64 63.5z" />
    <glyph glyph-name="ae" unicode="&#xe6;" horiz-adv-x="1771" 
d="M1729 535q0 -24 -1.5 -51t-3.5 -42l-2 -16h-718q9 -100 81.5 -155.5t176.5 -55.5q88 0 168.5 29.5t134.5 66.5l129 -170q-1 0 -20 -16.5t-35.5 -27.5t-47.5 -30.5t-67 -33.5t-81.5 -27.5t-103.5 -21t-122 -7.5q-261 0 -406 166q-88 -88 -177 -127t-226 -39
q-99 0 -180.5 33.5t-135 108t-53.5 180.5q0 82 34.5 143t94 95t125.5 51t143 20l250 10v25q0 77 -53.5 118.5t-153.5 41.5q-88 0 -173.5 -29t-135.5 -61l-86 213q204 102 432 102q184 0 281 -61q13 -9 25.5 -18.5t21 -18t15 -14.5t11.5 -12l4 -5q126 129 349 129
q224 0 365 -137.5t141 -355.5zM1006 612h415q-2 78 -56 140.5t-148 62.5q-96 0 -151 -61.5t-60 -141.5zM717 289q-33 85 -33 155l-156 -8q-78 -4 -119.5 -37t-41.5 -88q0 -58 41.5 -91.5t109.5 -33.5q62 0 118.5 33.5t80.5 69.5z" />
    <glyph glyph-name="ccedilla" unicode="&#xe7;" horiz-adv-x="987" 
d="M889 346l78 -248l-5 -5q-6 -5 -10.5 -8.5t-14 -10.5t-19 -13t-24 -14t-28.5 -14.5t-33.5 -14t-39.5 -13t-44.5 -11t-50.5 -8.5l-145 -283h-281l193 285q-81 16 -153.5 56t-132.5 102t-95 154.5t-35 201.5q0 123 45 224.5t120.5 166t171 100t200.5 35.5q72 0 137.5 -11
t107 -26.5t72.5 -31t45 -26.5l13 -11l-72 -248q-113 90 -260 90q-107 0 -178.5 -69.5t-71.5 -186.5q0 -120 69 -190t185 -70q68 0 132 24.5t94 49.5z" />
    <glyph glyph-name="egrave" unicode="&#xe8;" horiz-adv-x="1142" 
d="M569 1413l162 -297h-233l-209 297h280zM1100 535l-4 -109h-719q10 -104 81 -157.5t177 -53.5q88 0 168.5 29.5t134.5 66.5l129 -170q-1 0 -20 -16.5t-35.5 -27.5t-47.5 -30.5t-67 -33.5t-82 -27.5t-104.5 -21t-122.5 -7.5q-239 0 -389 141t-150 386q0 122 43 222
t117.5 165.5t173 101t211.5 35.5q225 0 365.5 -136t140.5 -357zM379 612h416q-2 78 -57 140.5t-150 62.5t-150.5 -61.5t-58.5 -141.5z" />
    <glyph glyph-name="eacute" unicode="&#xe9;" horiz-adv-x="1142" 
d="M604 1413h281l-211 -297h-234zM1100 535l-4 -109h-719q10 -104 81 -157.5t177 -53.5q88 0 168.5 29.5t134.5 66.5l129 -170q-1 0 -20 -16.5t-35.5 -27.5t-47.5 -30.5t-67 -33.5t-82 -27.5t-104.5 -21t-122.5 -7.5q-239 0 -389 141t-150 386q0 122 43 222t117.5 165.5
t173 101t211.5 35.5q225 0 365.5 -136t140.5 -357zM379 612h416q-2 78 -57 140.5t-150 62.5t-150.5 -61.5t-58.5 -141.5z" />
    <glyph glyph-name="ecircumflex" unicode="&#xea;" horiz-adv-x="1142" 
d="M743 1413l177 -297h-222l-110 189l-111 -189h-221l176 297h311zM1100 535l-4 -109h-719q10 -104 81 -157.5t177 -53.5q88 0 168.5 29.5t134.5 66.5l129 -170q-1 0 -20 -16.5t-35.5 -27.5t-47.5 -30.5t-67 -33.5t-82 -27.5t-104.5 -21t-122.5 -7.5q-239 0 -389 141
t-150 386q0 122 43 222t117.5 165.5t173 101t211.5 35.5q225 0 365.5 -136t140.5 -357zM379 612h416q-2 78 -57 140.5t-150 62.5t-150.5 -61.5t-58.5 -141.5z" />
    <glyph glyph-name="edieresis" unicode="&#xeb;" horiz-adv-x="1142" 
d="M915 1264q0 -61 -39 -98.5t-98 -37.5q-61 0 -100 37.5t-39 98.5t39 99t100 38q59 0 98 -38t39 -99zM549 1264q0 -61 -39 -98.5t-98 -37.5q-60 0 -100 38t-40 98q0 61 40 99t100 38q59 0 98 -38t39 -99zM1100 535l-4 -109h-719q10 -104 81 -157.5t177 -53.5
q88 0 168.5 29.5t134.5 66.5l129 -170q-1 0 -20 -16.5t-35.5 -27.5t-47.5 -30.5t-67 -33.5t-82 -27.5t-104.5 -21t-122.5 -7.5q-239 0 -389 141t-150 386q0 122 43 222t117.5 165.5t173 101t211.5 35.5q225 0 365.5 -136t140.5 -357zM379 612h416q-2 78 -57 140.5t-150 62.5
t-150.5 -61.5t-58.5 -141.5z" />
    <glyph glyph-name="igrave" unicode="&#xec;" horiz-adv-x="552" 
d="M279 1413l161 -297h-231l-211 297h281zM440 1010v-1010h-327v1010h327z" />
    <glyph glyph-name="iacute" unicode="&#xed;" horiz-adv-x="552" 
d="M274 1413h281l-209 -297h-233zM440 1010v-1010h-327v1010h327z" />
    <glyph glyph-name="icircumflex" unicode="&#xee;" horiz-adv-x="552" 
d="M432 1413l176 -297h-221l-111 189l-110 -189h-219l174 297h311zM440 1010v-1010h-327v1010h327z" />
    <glyph glyph-name="idieresis" unicode="&#xef;" horiz-adv-x="552" 
d="M598 1264q0 -61 -39 -98.5t-98 -37.5q-61 0 -100 37.5t-39 98.5t39 99t100 38q59 0 98 -38t39 -99zM231 1264q0 -61 -39 -98.5t-98 -37.5q-60 0 -99.5 37.5t-39.5 98.5t40 99t99 38t98 -38t39 -99zM440 1010v-1010h-327v1010h327z" />
    <glyph glyph-name="eth" unicode="&#xf0;" horiz-adv-x="1220" 
d="M1163 496q0 -154 -73 -273t-200 -182.5t-286 -63.5q-241 0 -398 143t-157 376q0 113 45 208.5t117.5 156t159.5 94.5t174 34q69 0 123 -18.5t77 -40.5q-66 118 -217 246l-229 -132l-76 136l178 100q-117 80 -184 121l227 125q102 -57 193 -125l244 139l75 -135l-192 -107
q1 -1 23.5 -21.5t45.5 -42.5t52.5 -53.5t48.5 -56.5q48 -62 80 -113t70.5 -130.5t58.5 -177t20 -207.5zM834 502q0 110 -63 182t-165 72q-101 0 -163 -72t-62 -182q0 -112 62 -184t163 -72q102 0 165 72.5t63 183.5z" />
    <glyph glyph-name="ntilde" unicode="&#xf1;" horiz-adv-x="1202" 
d="M834 1393l139 -21q-3 -97 -71.5 -166t-160.5 -69q-20 0 -39 2.5t-31.5 5.5t-28.5 9t-22 9t-20 10.5t-16 8.5q-4 2 -30.5 18t-46.5 23.5t-40 7.5q-67 0 -94 -88l-140 20q3 97 71.5 166.5t160.5 69.5q16 0 31 -1.5t26 -3t23.5 -5.5t19.5 -6.5t18 -7.5t14.5 -7l14 -8
t11.5 -6q3 -2 23.5 -14.5t30.5 -17.5t28 -11t34 -6q34 0 59.5 23.5t35.5 64.5zM1100 596v-596h-328v526q0 55 -5.5 93.5t-21.5 72.5t-48 51t-81 17q-180 0 -180 -260v-500h-327v1010h327l-2 -146h4q100 164 293 164q86 0 151 -22t106 -59.5t66.5 -93.5t35.5 -118t10 -139z
" />
    <glyph glyph-name="ograve" unicode="&#xf2;" horiz-adv-x="1220" 
d="M584 1413l164 -297h-234l-207 297h277zM1169 502q0 -159 -73.5 -279.5t-199.5 -183t-286 -62.5t-286.5 62.5t-200.5 183t-74 279.5t74 280t200.5 183.5t286.5 62.5t286 -62.5t199.5 -183.5t73.5 -280zM840 508q0 115 -62.5 188.5t-167.5 73.5q-106 0 -167.5 -73.5
t-61.5 -188.5t61.5 -188.5t167.5 -73.5q105 0 167.5 73.5t62.5 188.5z" />
    <glyph glyph-name="oacute" unicode="&#xf3;" horiz-adv-x="1220" 
d="M635 1413h280l-208 -297h-234zM1169 502q0 -159 -73.5 -279.5t-199.5 -183t-286 -62.5t-286.5 62.5t-200.5 183t-74 279.5t74 280t200.5 183.5t286.5 62.5t286 -62.5t199.5 -183.5t73.5 -280zM840 508q0 115 -62.5 188.5t-167.5 73.5q-106 0 -167.5 -73.5t-61.5 -188.5
t61.5 -188.5t167.5 -73.5q105 0 167.5 73.5t62.5 188.5z" />
    <glyph glyph-name="ocircumflex" unicode="&#xf4;" horiz-adv-x="1220" 
d="M766 1413l174 -297h-219l-111 189l-110 -189h-221l176 297h311zM1169 502q0 -159 -73.5 -279.5t-199.5 -183t-286 -62.5t-286.5 62.5t-200.5 183t-74 279.5t74 280t200.5 183.5t286.5 62.5t286 -62.5t199.5 -183.5t73.5 -280zM840 508q0 115 -62.5 188.5t-167.5 73.5
q-106 0 -167.5 -73.5t-61.5 -188.5t61.5 -188.5t167.5 -73.5q105 0 167.5 73.5t62.5 188.5z" />
    <glyph glyph-name="otilde" unicode="&#xf5;" horiz-adv-x="1220" 
d="M840 1393l139 -21q-1 -96 -69.5 -165.5t-161.5 -69.5q-20 0 -39.5 2.5t-31.5 5t-28.5 9t-22 9t-20.5 11t-16 8.5q-4 2 -30.5 18t-46.5 23.5t-40 7.5q-33 0 -57 -23.5t-35 -64.5l-141 20q3 97 72 166.5t161 69.5q15 0 30 -1.5t25.5 -3t23 -5.5t19.5 -6.5t18 -7.5t15 -7
t14 -7.5t11 -6.5q3 -2 23.5 -14.5t30.5 -17.5t28 -11t34 -6q34 0 59.5 23.5t35.5 64.5zM1169 502q0 -159 -73.5 -279.5t-199.5 -183t-286 -62.5t-286.5 62.5t-200.5 183t-74 279.5t74 280t200.5 183.5t286.5 62.5t286 -62.5t199.5 -183.5t73.5 -280zM840 508
q0 115 -62.5 188.5t-167.5 73.5q-106 0 -167.5 -73.5t-61.5 -188.5t61.5 -188.5t167.5 -73.5q105 0 167.5 73.5t62.5 188.5z" />
    <glyph glyph-name="odieresis" unicode="&#xf6;" horiz-adv-x="1220" 
d="M932 1264q0 -61 -39.5 -98.5t-99.5 -37.5q-59 0 -98.5 37.5t-39.5 98.5t39.5 99t98.5 38t99 -38t40 -99zM565 1264q0 -61 -39 -98.5t-100 -37.5q-59 0 -98 37.5t-39 98.5t39 99t98 38q61 0 100 -38t39 -99zM1169 502q0 -159 -73.5 -279.5t-199.5 -183t-286 -62.5
t-286.5 62.5t-200.5 183t-74 279.5t74 280t200.5 183.5t286.5 62.5t286 -62.5t199.5 -183.5t73.5 -280zM840 508q0 115 -62.5 188.5t-167.5 73.5q-106 0 -167.5 -73.5t-61.5 -188.5t61.5 -188.5t167.5 -73.5q105 0 167.5 73.5t62.5 188.5z" />
    <glyph glyph-name="divide" unicode="&#xf7;" horiz-adv-x="1435" 
d="M891 1102q0 -72 -50.5 -123t-121.5 -51q-72 0 -123 51t-51 123q0 71 51 121.5t123 50.5q71 0 121.5 -51t50.5 -121zM1280 825v-237h-1124v237h1124zM891 311q0 -71 -50.5 -121.5t-121.5 -50.5q-72 0 -123 50.5t-51 121.5q0 72 51 123t123 51q71 0 121.5 -51t50.5 -123z
" />
    <glyph glyph-name="oslash" unicode="&#xf8;" horiz-adv-x="1220" 
d="M1047 1053l124 -121l-106 -105q104 -136 104 -325q0 -159 -73.5 -279.5t-199.5 -183t-286 -62.5q-186 0 -327 86l-113 -108l-125 121l107 104q-103 141 -103 322q0 159 74 280t200.5 183.5t286.5 62.5q181 0 324 -84zM391 406l342 335q-50 35 -123 35q-107 0 -171 -74.5
t-64 -193.5q0 -52 16 -102zM848 508q0 49 -17 98l-339 -334q53 -32 118 -32q108 0 173 75t65 193z" />
    <glyph glyph-name="ugrave" unicode="&#xf9;" horiz-adv-x="1185" 
d="M563 1413l164 -297h-233l-211 297h280zM1077 1010v-1010h-315l-2 115q-38 -54 -116.5 -96t-178.5 -42q-200 0 -289 119q-74 106 -74 303v611h328v-566q0 -95 33.5 -145.5t116.5 -50.5q85 0 127.5 60.5t42.5 164.5v537h327z" />
    <glyph glyph-name="uacute" unicode="&#xfa;" horiz-adv-x="1185" 
d="M608 1413h281l-209 -297h-234zM1077 1010v-1010h-315l-2 115q-38 -54 -116.5 -96t-178.5 -42q-200 0 -289 119q-74 106 -74 303v611h328v-566q0 -95 33.5 -145.5t116.5 -50.5q85 0 127.5 60.5t42.5 164.5v537h327z" />
    <glyph glyph-name="ucircumflex" unicode="&#xfb;" horiz-adv-x="1185" 
d="M745 1413l177 -297h-222l-110 189l-111 -189h-221l176 297h311zM1077 1010v-1010h-315l-2 115q-38 -54 -116.5 -96t-178.5 -42q-200 0 -289 119q-74 106 -74 303v611h328v-566q0 -95 33.5 -145.5t116.5 -50.5q85 0 127.5 60.5t42.5 164.5v537h327z" />
    <glyph glyph-name="udieresis" unicode="&#xfc;" horiz-adv-x="1185" 
d="M911 1264q0 -61 -39 -98.5t-100 -37.5q-59 0 -98 37.5t-39 98.5t39 99t98 38q61 0 100 -38t39 -99zM545 1264q0 -61 -39 -98.5t-98 -37.5q-60 0 -100 38t-40 98q0 61 40 99t100 38q59 0 98 -38t39 -99zM1077 1010v-1010h-315l-2 115q-38 -54 -116.5 -96t-178.5 -42
q-200 0 -289 119q-74 106 -74 303v611h328v-566q0 -95 33.5 -145.5t116.5 -50.5q85 0 127.5 60.5t42.5 164.5v537h327z" />
    <glyph glyph-name="yacute" unicode="&#xfd;" horiz-adv-x="1114" 
d="M586 1413h278l-209 -297h-233zM791 1010h337l-450 -1106q-61 -148 -134 -219.5t-194 -71.5q-76 0 -146 12.5t-102 24.5l-32 12l65 242q72 -27 121 -27q24 0 37 2t30.5 17.5t30.5 46.5l37 88l-399 979h342l229 -650z" />
    <glyph glyph-name="thorn" unicode="&#xfe;" horiz-adv-x="1290" 
d="M1239 504q0 -149 -57.5 -268t-167 -189t-252.5 -70q-216 0 -320 150q2 -86 2 -178v-320h-327v1784h327v-338l-2 -188q15 22 40 43.5t63.5 45t95.5 38t123 14.5q214 0 344.5 -148.5t130.5 -375.5zM905 508q0 117 -64.5 189.5t-170.5 72.5t-172 -72.5t-66 -189.5t66 -189.5
t172 -72.5t170.5 72.5t64.5 189.5z" />
    <glyph glyph-name="ydieresis" unicode="&#xff;" horiz-adv-x="1114" 
d="M885 1268q0 -61 -40.5 -99.5t-99.5 -38.5t-98 38.5t-39 99.5t39 99t98 38q60 0 100 -38t40 -99zM518 1268q0 -61 -40 -99.5t-99 -38.5t-98 38.5t-39 99.5t39 99t98 38t99 -38t40 -99zM791 1010h337l-450 -1106q-61 -148 -134 -219.5t-194 -71.5q-76 0 -146 12.5
t-102 24.5l-32 12l65 242q72 -27 121 -27q24 0 37 2t30.5 17.5t30.5 46.5l37 88l-399 979h342l229 -650z" />
    <glyph glyph-name="Amacron" unicode="&#x100;" horiz-adv-x="1392" 
d="M868 1415l533 -1415h-361l-100 285h-504l-100 -285h-344l532 1415h344zM512 543h352l-176 508zM1014 1749v-158h-649v158h649z" />
    <glyph glyph-name="amacron" unicode="&#x101;" horiz-adv-x="1107" 
d="M1014 569v-569h-314l-6 106q-26 -26 -42.5 -40t-54 -39t-85.5 -37.5t-106 -12.5q-69 0 -133 19t-117 57t-85 101.5t-32 144.5t34.5 141.5t93 95t124.5 52t141 20.5l254 10v23q0 79 -54 120.5t-153 41.5q-87 0 -173.5 -29t-135.5 -61l-86 213q204 102 432 102
q251 0 377 -117q61 -58 91 -138.5t30 -203.5zM688 279v165l-162 -10q-76 -3 -117.5 -34.5t-41.5 -88.5q0 -58 42.5 -91.5t110.5 -33.5q59 0 104 29.5t64 63.5zM858 1346v-158h-649v158h649z" />
    <glyph glyph-name="Abreve" unicode="&#x102;" horiz-adv-x="1392" 
d="M868 1415l533 -1415h-361l-100 285h-504l-100 -285h-344l532 1415h344zM512 543h352l-176 508zM893 1804h141q-20 -134 -112 -203t-234 -69q-144 0 -236 69t-112 203h143q19 -59 74 -87.5t131 -28.5t131 28.5t74 87.5z" />
    <glyph glyph-name="abreve" unicode="&#x103;" horiz-adv-x="1107" 
d="M1014 569v-569h-314l-6 106q-26 -26 -42.5 -40t-54 -39t-85.5 -37.5t-106 -12.5q-69 0 -133 19t-117 57t-85 101.5t-32 144.5t34.5 141.5t93 95t124.5 52t141 20.5l254 10v23q0 79 -54 120.5t-153 41.5q-87 0 -173.5 -29t-135.5 -61l-86 213q204 102 432 102
q251 0 377 -117q61 -58 91 -138.5t30 -203.5zM688 279v165l-162 -10q-76 -3 -117.5 -34.5t-41.5 -88.5q0 -58 42.5 -91.5t110.5 -33.5q59 0 104 29.5t64 63.5zM739 1401h142q-20 -134 -112 -203.5t-234 -69.5q-144 0 -236.5 69.5t-112.5 203.5h144q19 -59 74 -88t131 -29
t130.5 29t73.5 88z" />
    <glyph glyph-name="Aogonek" unicode="&#x104;" horiz-adv-x="1392" 
d="M1417 -240l43 -84q-4 -4 -12.5 -10t-34 -22.5t-52 -29t-65 -22.5t-75.5 -10q-105 0 -172.5 47.5t-67.5 137.5q0 77 45 135.5t107 97.5h-93l-100 285h-504l-100 -285h-344l532 1415h344l533 -1415h-86q-60 -33 -105 -85t-45 -103q0 -50 35 -72.5t80 -22.5q34 0 74 14
t63 29zM512 543h352l-176 508z" />
    <glyph glyph-name="aogonek" unicode="&#x105;" horiz-adv-x="1107" 
d="M1053 -240l43 -84q-4 -4 -12.5 -10t-34 -22.5t-52.5 -29t-65.5 -22.5t-75.5 -10q-105 0 -172.5 47.5t-67.5 137.5q0 77 45 135.5t107 97.5h-68l-6 106q-26 -26 -42.5 -40t-54 -39t-85.5 -37.5t-106 -12.5q-69 0 -133 19t-117 57t-85 101.5t-32 144.5t34.5 141.5t93 95
t124.5 52t141 20.5l254 10v23q0 79 -54 120.5t-153 41.5q-87 0 -173.5 -29t-135.5 -61l-86 213q204 102 432 102q251 0 377 -117q61 -58 91 -138.5t30 -203.5v-569h-64q-59 -33 -104 -85t-45 -103q0 -50 34.5 -72.5t79.5 -22.5q34 0 74.5 14t63.5 29zM688 279v165l-162 -10
q-159 -10 -159 -123q0 -58 42.5 -91.5t110.5 -33.5q59 0 104 29.5t64 63.5z" />
    <glyph glyph-name="Cacute" unicode="&#x106;" horiz-adv-x="1331" 
d="M1198 426l111 -258q-188 -193 -510 -193q-209 0 -376.5 86.5t-266.5 254t-99 389.5q0 167 58 306t158.5 230.5t235.5 142t290 50.5q102 0 191.5 -18.5t148 -47.5t93 -52t52.5 -42l-102 -275q-32 41 -137.5 94.5t-227.5 53.5q-185 0 -304.5 -117t-119.5 -319
q0 -200 122 -317.5t302 -117.5q123 0 219.5 42t161.5 108zM719 1817h280l-211 -297h-231z" />
    <glyph glyph-name="cacute" unicode="&#x107;" horiz-adv-x="987" 
d="M889 346l78 -248l-6 -6l-12 -10t-18.5 -13.5t-26 -16.5t-33.5 -17.5t-41 -17.5t-48.5 -15.5t-57.5 -13t-66.5 -8.5t-75.5 -3q-104 0 -199.5 35.5t-170 100.5t-119 166t-44.5 223q0 123 45 224.5t120.5 166t171 100t200.5 35.5q72 0 137.5 -11t107 -26.5t72.5 -31
t45 -26.5l13 -11l-72 -248q-113 90 -260 90q-107 0 -178.5 -69.5t-71.5 -186.5q0 -120 69 -190t185 -70q68 0 132 24.5t94 49.5zM516 1413h281l-211 -297h-232z" />
    <glyph glyph-name="Ccircumflex" unicode="&#x108;" horiz-adv-x="1331" 
d="M1198 426l111 -258q-188 -193 -510 -193q-209 0 -376.5 86.5t-266.5 254t-99 389.5q0 167 58 306t158.5 230.5t235.5 142t290 50.5q102 0 191.5 -18.5t148 -47.5t93 -52t52.5 -42l-102 -275q-32 41 -137.5 94.5t-227.5 53.5q-185 0 -304.5 -117t-119.5 -319
q0 -200 122 -317.5t302 -117.5q123 0 219.5 42t161.5 108zM897 1817l174 -297h-219l-111 188l-110 -188h-221l176 297h311z" />
    <glyph glyph-name="ccircumflex" unicode="&#x109;" horiz-adv-x="987" 
d="M889 346l78 -248l-6 -6l-12 -10t-18.5 -13.5t-26 -16.5t-33.5 -17.5t-41 -17.5t-48.5 -15.5t-57.5 -13t-66.5 -8.5t-75.5 -3q-104 0 -199.5 35.5t-170 100.5t-119 166t-44.5 223q0 123 45 224.5t120.5 166t171 100t200.5 35.5q72 0 137.5 -11t107 -26.5t72.5 -31
t45 -26.5l13 -11l-72 -248q-113 90 -260 90q-107 0 -178.5 -69.5t-71.5 -186.5q0 -120 69 -190t185 -70q68 0 132 24.5t94 49.5zM692 1413l174 -297h-219l-110 189l-111 -189h-221l176 297h311z" />
    <glyph glyph-name="Cdotaccent" unicode="&#x10a;" horiz-adv-x="1331" 
d="M1198 426l111 -258q-188 -193 -510 -193q-209 0 -376.5 86.5t-266.5 254t-99 389.5q0 167 58 306t158.5 230.5t235.5 142t290 50.5q102 0 191.5 -18.5t148 -47.5t93 -52t52.5 -42l-102 -275q-32 41 -137.5 94.5t-227.5 53.5q-185 0 -304.5 -117t-119.5 -319
q0 -200 122 -317.5t302 -117.5q123 0 219.5 42t161.5 108zM840 1671q0 -59 -41 -99t-99 -40q-59 0 -99 39.5t-40 99.5q0 59 40 98t99 39q58 0 99 -39t41 -98z" />
    <glyph glyph-name="cdotaccent" unicode="&#x10b;" horiz-adv-x="987" 
d="M889 346l78 -248l-6 -6l-12 -10t-18.5 -13.5t-26 -16.5t-33.5 -17.5t-41 -17.5t-48.5 -15.5t-57.5 -13t-66.5 -8.5t-75.5 -3q-104 0 -199.5 35.5t-170 100.5t-119 166t-44.5 223q0 123 45 224.5t120.5 166t171 100t200.5 35.5q72 0 137.5 -11t107 -26.5t72.5 -31
t45 -26.5l13 -11l-72 -248q-113 90 -260 90q-107 0 -178.5 -69.5t-71.5 -186.5q0 -120 69 -190t185 -70q68 0 132 24.5t94 49.5zM653 1268q0 -59 -40.5 -99.5t-98.5 -40.5q-59 0 -99 40t-40 100q0 59 40 98t99 39q58 0 98.5 -39t40.5 -98z" />
    <glyph glyph-name="Ccaron" unicode="&#x10c;" horiz-adv-x="1331" 
d="M1198 426l111 -258q-188 -193 -510 -193q-209 0 -376.5 86.5t-266.5 254t-99 389.5q0 167 58 306t158.5 230.5t235.5 142t290 50.5q102 0 191.5 -18.5t148 -47.5t93 -52t52.5 -42l-102 -275q-32 41 -137.5 94.5t-227.5 53.5q-185 0 -304.5 -117t-119.5 -319
q0 -200 122 -317.5t302 -117.5q123 0 219.5 42t161.5 108zM817 1817h219l-174 -297h-311l-176 297h221l111 -191z" />
    <glyph glyph-name="ccaron" unicode="&#x10d;" horiz-adv-x="987" 
d="M889 346l78 -248l-6 -6l-12 -10t-18.5 -13.5t-26 -16.5t-33.5 -17.5t-41 -17.5t-48.5 -15.5t-57.5 -13t-66.5 -8.5t-75.5 -3q-104 0 -199.5 35.5t-170 100.5t-119 166t-44.5 223q0 123 45 224.5t120.5 166t171 100t200.5 35.5q72 0 137.5 -11t107 -26.5t72.5 -31
t45 -26.5l13 -11l-72 -248q-113 90 -260 90q-107 0 -178.5 -69.5t-71.5 -186.5q0 -120 69 -190t185 -70q68 0 132 24.5t94 49.5zM627 1413h219l-174 -297h-312l-176 297h222l110 -190z" />
    <glyph glyph-name="Dcaron" unicode="&#x10e;" horiz-adv-x="1439" 
d="M1382 707q0 -347 -229 -539q-201 -168 -545 -168h-479v1413h479q346 0 545 -170q229 -189 229 -536zM1047 707q0 210 -125 331q-108 101 -295 101h-168v-858h168q189 0 295 102q125 117 125 324zM748 1817h219l-174 -297h-312l-176 297h221l111 -191z" />
    <glyph glyph-name="dcaron" unicode="&#x10f;" horiz-adv-x="1650" 
d="M1174 1413v-1413h-312l2 133l-6 -2q-56 -75 -142.5 -114.5t-189.5 -39.5q-143 0 -252.5 70t-167 189t-57.5 268t57.5 267.5t167 187.5t252.5 69q122 0 204 -45t116 -96v526h328zM856 508q0 117 -64.5 189.5t-170.5 72.5t-172 -72.5t-66 -189.5t66 -189.5t172 -72.5
t170.5 72.5t64.5 189.5zM1403 1413h313l-207 -510h-268z" />
    <glyph glyph-name="Dcroat" unicode="&#x110;" horiz-adv-x="1439" 
d="M1382 707q0 -347 -229 -539q-201 -168 -545 -168h-479v618h-117v218h117v577h479q346 0 545 -170q229 -189 229 -536zM1047 707q0 210 -125 331q-108 101 -295 101h-168v-303h278v-209h-278v-346h168q189 0 295 102q125 117 125 324z" />
    <glyph glyph-name="dcroat" unicode="&#x111;" horiz-adv-x="1290" 
d="M1174 1147v-1147h-312l2 133l-6 -2q-56 -75 -142.5 -114.5t-189.5 -39.5q-143 0 -252.5 70t-167 189t-57.5 268t57.5 267.5t167 187.5t252.5 69q122 0 204 -45t116 -96v260h-338v158h338v108h328v-108h106v-158h-106zM856 508q0 117 -64.5 189.5t-170.5 72.5t-172 -72.5
t-66 -189.5t66 -189.5t172 -72.5t170.5 72.5t64.5 189.5z" />
    <glyph glyph-name="Emacron" unicode="&#x112;" horiz-adv-x="1138" 
d="M1063 268v-268h-934v1413h915v-264h-585v-289h553v-264h-553v-328h604zM915 1749v-158h-649v158h649z" />
    <glyph glyph-name="emacron" unicode="&#x113;" horiz-adv-x="1142" 
d="M1100 535l-4 -109h-719q10 -104 81 -157.5t177 -53.5q88 0 168.5 29.5t134.5 66.5l129 -170q-1 0 -20 -16.5t-35.5 -27.5t-47.5 -30.5t-67 -33.5t-82 -27.5t-104.5 -21t-122.5 -7.5q-239 0 -389 141t-150 386q0 122 43 222t117.5 165.5t173 101t211.5 35.5
q225 0 365.5 -136t140.5 -357zM379 612h416q-2 78 -57 140.5t-150 62.5t-150.5 -61.5t-58.5 -141.5zM895 1346v-158h-649v158h649z" />
    <glyph glyph-name="Ebreve" unicode="&#x114;" horiz-adv-x="1138" 
d="M1063 268v-268h-934v1413h915v-264h-585v-289h553v-264h-553v-328h604zM809 1804h141q-20 -134 -112 -203t-234 -69q-144 0 -236 69t-112 203h143q19 -59 74 -87.5t131 -28.5t131 28.5t74 87.5z" />
    <glyph glyph-name="ebreve" unicode="&#x115;" horiz-adv-x="1142" 
d="M1100 535l-4 -109h-719q10 -104 81 -157.5t177 -53.5q88 0 168.5 29.5t134.5 66.5l129 -170q-1 0 -20 -16.5t-35.5 -27.5t-47.5 -30.5t-67 -33.5t-82 -27.5t-104.5 -21t-122.5 -7.5q-239 0 -389 141t-150 386q0 122 43 222t117.5 165.5t173 101t211.5 35.5
q225 0 365.5 -136t140.5 -357zM379 612h416q-2 78 -57 140.5t-150 62.5t-150.5 -61.5t-58.5 -141.5zM776 1401h142q-20 -134 -112.5 -203.5t-234.5 -69.5q-144 0 -236 69t-112 204h144q19 -59 73.5 -88t130.5 -29t131 29t74 88z" />
    <glyph glyph-name="Edotaccent" unicode="&#x116;" horiz-adv-x="1138" 
d="M1063 268v-268h-934v1413h915v-264h-585v-289h553v-264h-553v-328h604zM748 1671q0 -59 -41 -99t-99 -40q-59 0 -99 39.5t-40 99.5q0 59 40 98t99 39q58 0 99 -39t41 -98z" />
    <glyph glyph-name="edotaccent" unicode="&#x117;" horiz-adv-x="1142" 
d="M1100 535l-4 -109h-719q10 -104 81 -157.5t177 -53.5q88 0 168.5 29.5t134.5 66.5l129 -170q-1 0 -20 -16.5t-35.5 -27.5t-47.5 -30.5t-67 -33.5t-82 -27.5t-104.5 -21t-122.5 -7.5q-239 0 -389 141t-150 386q0 122 43 222t117.5 165.5t173 101t211.5 35.5
q225 0 365.5 -136t140.5 -357zM379 612h416q-2 78 -57 140.5t-150 62.5t-150.5 -61.5t-58.5 -141.5zM711 1268q0 -59 -41 -99.5t-99 -40.5q-59 0 -99 40t-40 100q0 59 40 98t99 39q58 0 99 -39t41 -98z" />
    <glyph glyph-name="Eogonek" unicode="&#x118;" horiz-adv-x="1138" 
d="M1020 -240l43 -84q-4 -4 -12.5 -10t-34 -22.5t-52.5 -29t-65.5 -22.5t-75.5 -10q-105 0 -172 47.5t-67 137.5q0 139 151 233h-606v1413h915v-264h-585v-289h553v-264h-553v-328h604v-268h-145q-60 -33 -105 -85t-45 -103q0 -50 35 -72.5t80 -22.5q34 0 74 14t63 29z" />
    <glyph glyph-name="eogonek" unicode="&#x119;" horiz-adv-x="1142" 
d="M887 -240l43 -84q-4 -4 -12.5 -10t-34 -22.5t-52.5 -29t-65.5 -22.5t-75.5 -10q-105 0 -172 47.5t-67 137.5q0 120 118 210q-233 6 -376.5 146t-143.5 381q0 122 43 222t117.5 165.5t173 101t211.5 35.5q225 0 365.5 -136t140.5 -357l-4 -109h-719q10 -104 81 -157.5
t177 -53.5q88 0 168.5 29.5t134.5 66.5l129 -170q-1 -1 -21 -17.5t-40.5 -30t-53.5 -32.5t-77.5 -35.5t-94.5 -27.5q-59 -33 -102 -83.5t-43 -102.5q0 -50 35 -72.5t80 -22.5q34 0 74 14t63 29zM379 612h416q-2 78 -57 140.5t-150 62.5t-150.5 -61.5t-58.5 -141.5z" />
    <glyph glyph-name="Ecaron" unicode="&#x11a;" horiz-adv-x="1138" 
d="M1063 268v-268h-934v1413h915v-264h-585v-289h553v-264h-553v-328h604zM715 1817h219l-174 -297h-311l-177 297h222l110 -191z" />
    <glyph glyph-name="ecaron" unicode="&#x11b;" horiz-adv-x="1142" 
d="M1100 535l-4 -109h-719q10 -104 81 -157.5t177 -53.5q88 0 168.5 29.5t134.5 66.5l129 -170q-1 0 -20 -16.5t-35.5 -27.5t-47.5 -30.5t-67 -33.5t-82 -27.5t-104.5 -21t-122.5 -7.5q-239 0 -389 141t-150 386q0 122 43 222t117.5 165.5t173 101t211.5 35.5
q225 0 365.5 -136t140.5 -357zM379 612h416q-2 78 -57 140.5t-150 62.5t-150.5 -61.5t-58.5 -141.5zM682 1413h219l-174 -297h-311l-176 297h221l110 -190z" />
    <glyph glyph-name="Gcircumflex" unicode="&#x11c;" horiz-adv-x="1523" 
d="M1421 805v-586q-3 -3 -24 -22t-32 -28t-37.5 -29.5t-46.5 -33t-54.5 -31.5t-65.5 -31t-74 -26t-86.5 -22t-97 -13.5t-110.5 -5.5q-148 0 -280 48.5t-234 139t-162 231t-60 311.5q0 172 60 311.5t162.5 229.5t235 138t282.5 48q359 0 575 -239q2 -2 3.5 -4t2.5 -3
l-219 -191q-145 162 -362 162q-176 0 -290 -121t-114 -331q0 -209 116.5 -331t293.5 -122q64 0 118 9.5t85.5 22.5t53.5 26t30 22l8 10v209h-297v252h620zM934 1817l174 -297h-219l-111 188l-110 -188h-222l177 297h311z" />
    <glyph glyph-name="gcircumflex" unicode="&#x11d;" horiz-adv-x="1286" 
d="M1174 1010v-805q0 -157 -38.5 -260.5t-115.5 -175.5q-170 -160 -465 -160q-154 0 -285 48t-204 101l135 219q52 -40 154 -77t194 -37q161 0 237 80q62 69 62 200v33h-4q-109 -143 -318 -143q-94 0 -179 32.5t-152 93t-106.5 157t-39.5 214.5t39.5 214.5t106.5 157.5
t152 93.5t179 32.5q209 0 320 -147h4l-4 129h328zM856 528q0 105 -64.5 174.5t-170.5 69.5q-107 0 -172.5 -69.5t-65.5 -174.5q0 -106 65.5 -175.5t172.5 -69.5t171 69.5t64 175.5zM768 1413l174 -297h-219l-111 189l-110 -189h-221l176 297h311z" />
    <glyph glyph-name="Gbreve" unicode="&#x11e;" horiz-adv-x="1523" 
d="M1421 805v-586q-3 -3 -24 -22t-32 -28t-37.5 -29.5t-46.5 -33t-54.5 -31.5t-65.5 -31t-74 -26t-86.5 -22t-97 -13.5t-110.5 -5.5q-148 0 -280 48.5t-234 139t-162 231t-60 311.5q0 172 60 311.5t162.5 229.5t235 138t282.5 48q359 0 575 -239q2 -2 3.5 -4t2.5 -3
l-219 -191q-145 162 -362 162q-176 0 -290 -121t-114 -331q0 -209 116.5 -331t293.5 -122q64 0 118 9.5t85.5 22.5t53.5 26t30 22l8 10v209h-297v252h620zM975 1804h141q-20 -134 -112 -203t-234 -69q-144 0 -236 69t-112 203h143q19 -59 74 -87.5t131 -28.5t131 28.5
t74 87.5z" />
    <glyph glyph-name="gbreve" unicode="&#x11f;" horiz-adv-x="1286" 
d="M1174 1010v-805q0 -157 -38.5 -260.5t-115.5 -175.5q-170 -160 -465 -160q-154 0 -285 48t-204 101l135 219q52 -40 154 -77t194 -37q161 0 237 80q62 69 62 200v33h-4q-109 -143 -318 -143q-94 0 -179 32.5t-152 93t-106.5 157t-39.5 214.5t39.5 214.5t106.5 157.5
t152 93.5t179 32.5q209 0 320 -147h4l-4 129h328zM856 528q0 105 -64.5 174.5t-170.5 69.5q-107 0 -172.5 -69.5t-65.5 -174.5q0 -106 65.5 -175.5t172.5 -69.5t171 69.5t64 175.5zM823 1401h142q-20 -134 -112.5 -203.5t-234.5 -69.5q-144 0 -236 69t-112 204h144
q19 -59 73.5 -88t130.5 -29t131 29t74 88z" />
    <glyph glyph-name="Gdotaccent" unicode="&#x120;" horiz-adv-x="1523" 
d="M1421 805v-586q-3 -3 -24 -22t-32 -28t-37.5 -29.5t-46.5 -33t-54.5 -31.5t-65.5 -31t-74 -26t-86.5 -22t-97 -13.5t-110.5 -5.5q-148 0 -280 48.5t-234 139t-162 231t-60 311.5q0 172 60 311.5t162.5 229.5t235 138t282.5 48q359 0 575 -239q2 -2 3.5 -4t2.5 -3
l-219 -191q-145 162 -362 162q-176 0 -290 -121t-114 -331q0 -209 116.5 -331t293.5 -122q64 0 118 9.5t85.5 22.5t53.5 26t30 22l8 10v209h-297v252h620zM897 1671q0 -59 -40.5 -99t-98.5 -40q-59 0 -99.5 39.5t-40.5 99.5q0 59 40.5 98t99.5 39q58 0 98.5 -39t40.5 -98z
" />
    <glyph glyph-name="gdotaccent" unicode="&#x121;" horiz-adv-x="1286" 
d="M1174 1010v-805q0 -157 -38.5 -260.5t-115.5 -175.5q-170 -160 -465 -160q-154 0 -285 48t-204 101l135 219q52 -40 154 -77t194 -37q161 0 237 80q62 69 62 200v33h-4q-109 -143 -318 -143q-94 0 -179 32.5t-152 93t-106.5 157t-39.5 214.5t39.5 214.5t106.5 157.5
t152 93.5t179 32.5q209 0 320 -147h4l-4 129h328zM856 528q0 105 -64.5 174.5t-170.5 69.5q-107 0 -172.5 -69.5t-65.5 -174.5q0 -106 65.5 -175.5t172.5 -69.5t171 69.5t64 175.5zM719 1268q0 -59 -40.5 -99.5t-98.5 -40.5q-59 0 -99.5 40t-40.5 100q0 59 40.5 98t99.5 39
q58 0 98.5 -39t40.5 -98z" />
    <glyph glyph-name="Gcommaaccent" unicode="&#x122;" horiz-adv-x="1523" 
d="M1421 805v-586q-3 -3 -24 -22t-32 -28t-37.5 -29.5t-46.5 -33t-54.5 -31.5t-65.5 -31t-74 -26t-86.5 -22t-97 -13.5t-110.5 -5.5q-148 0 -280 48.5t-234 139t-162 231t-60 311.5q0 172 60 311.5t162.5 229.5t235 138t282.5 48q359 0 575 -239q2 -2 3.5 -4t2.5 -3
l-219 -191q-145 162 -362 162q-176 0 -290 -121t-114 -331q0 -209 116.5 -331t293.5 -122q64 0 118 9.5t85.5 22.5t53.5 26t30 22l8 10v209h-297v252h620zM678 -102h315l-116 -287h-269z" />
    <glyph glyph-name="gcommaaccent" unicode="&#x123;" horiz-adv-x="1286" 
d="M1174 1010v-805q0 -157 -38.5 -260.5t-115.5 -175.5q-170 -160 -465 -160q-154 0 -285 48t-204 101l135 219q52 -40 154 -77t194 -37q161 0 237 80q62 69 62 200v33h-4q-109 -143 -318 -143q-94 0 -179 32.5t-152 93t-106.5 157t-39.5 214.5t39.5 214.5t106.5 157.5
t152 93.5t179 32.5q209 0 320 -147h4l-4 129h328zM856 528q0 105 -64.5 174.5t-170.5 69.5q-107 0 -172.5 -69.5t-65.5 -174.5q0 -106 65.5 -175.5t172.5 -69.5t171 69.5t64 175.5zM705 1186h-316l117 287h268z" />
    <glyph glyph-name="Hcircumflex" unicode="&#x124;" horiz-adv-x="1488" 
d="M1360 1413v-1413h-332v592h-567v-592h-332v1413h332v-547h567v547h332zM901 1817l174 -297h-219l-111 188l-110 -188h-221l176 297h311z" />
    <glyph glyph-name="hcircumflex" unicode="&#x125;" horiz-adv-x="1206" 
d="M1108 596v-596h-330v530q0 53 -5 89t-20 71t-47 52.5t-81 17.5q-181 0 -181 -264v-496h-327v1413h327v-336l-2 -213q42 74 116.5 119t180.5 45q107 0 181 -32t114 -93t57 -135t17 -172zM442 1853l174 -297h-219l-110 189l-111 -189h-221l176 297h311z" />
    <glyph glyph-name="Hbar" unicode="&#x126;" horiz-adv-x="1488" 
d="M1360 1069v-1069h-332v592h-567v-592h-332v1069h-119v199h119v145h332v-145h567v145h332v-145h119v-199h-119zM461 866h567v203h-567v-203z" />
    <glyph glyph-name="hbar" unicode="&#x127;" horiz-adv-x="1206" 
d="M782 1305v-158h-338v-70l-2 -213q42 74 116.5 119t180.5 45q107 0 181 -32t114 -93t57 -135t17 -172v-596h-330v530q0 53 -5 89t-20 71t-47 52.5t-81 17.5q-181 0 -181 -264v-496h-327v1147h-107v158h107v108h327v-108h338z" />
    <glyph glyph-name="Itilde" unicode="&#x128;" horiz-adv-x="589" 
d="M461 1413v-1413h-332v1413h332zM526 1796l140 -20q-3 -97 -71.5 -166.5t-160.5 -69.5q-20 0 -39.5 2.5t-31.5 5t-28.5 9t-22 9t-20.5 11t-16 8.5q-4 2 -30.5 18t-46 23.5t-39.5 7.5q-33 0 -57 -23.5t-35 -64.5l-142 21q3 96 72.5 165.5t161.5 69.5q17 0 33 -1.5t30 -5
t23.5 -6t22.5 -8.5t17 -8t16 -9l13 -7q5 -3 19 -12t23 -13.5t22.5 -11t26.5 -9.5t26 -3q34 0 58.5 23.5t35.5 64.5z" />
    <glyph glyph-name="itilde" unicode="&#x129;" horiz-adv-x="552" 
d="M440 1010v-1010h-327v1010h327zM508 1393l139 -21q-3 -97 -71 -166t-160 -69q-20 0 -39.5 2.5t-31.5 5t-28.5 9t-22 9t-20.5 11t-16 8.5q-4 2 -30.5 18t-46.5 23.5t-40 7.5q-33 0 -57 -23.5t-35 -64.5l-141 20q3 97 72 166.5t161 69.5q15 0 30 -1.5t25.5 -3t23 -5.5
t19.5 -6.5t18 -7.5t15 -7t14 -7.5t11 -6.5q5 -3 19 -12t23 -13.5t22.5 -11t26.5 -9.5t26 -3q34 0 58.5 23.5t35.5 64.5z" />
    <glyph glyph-name="Imacron" unicode="&#x12a;" horiz-adv-x="589" 
d="M461 1413v-1413h-332v1413h332zM621 1749v-158h-650v158h650z" />
    <glyph glyph-name="imacron" unicode="&#x12b;" horiz-adv-x="552" 
d="M440 1010v-1010h-327v1010h327zM602 1346v-158h-649v158h649z" />
    <glyph glyph-name="Ibreve" unicode="&#x12c;" horiz-adv-x="589" 
d="M461 1413v-1413h-332v1413h332zM502 1804h141q-20 -134 -112 -203t-234 -69q-144 0 -236 69t-112 203h143q19 -59 74 -87.5t131 -28.5t131 28.5t74 87.5z" />
    <glyph glyph-name="ibreve" unicode="&#x12d;" horiz-adv-x="552" 
d="M440 1010v-1010h-327v1010h327zM483 1401h142q-20 -134 -112 -203.5t-234 -69.5q-144 0 -236.5 69.5t-112.5 203.5h144q19 -59 74 -88t131 -29t130.5 29t73.5 88z" />
    <glyph glyph-name="Iogonek" unicode="&#x12e;" horiz-adv-x="589" 
d="M498 -240l43 -84q-4 -4 -12.5 -10t-34 -22.5t-52.5 -29t-65.5 -22.5t-75.5 -10q-105 0 -172.5 47.5t-67.5 137.5q0 77 45 135.5t107 97.5h-84v1413h332v-1413h-66q-59 -33 -104 -85t-45 -103q0 -50 34.5 -72.5t79.5 -22.5q34 0 74.5 14t63.5 29z" />
    <glyph glyph-name="iogonek" unicode="&#x12f;" horiz-adv-x="552" 
d="M492 -240l43 -84q-4 -4 -12.5 -10t-34 -22.5t-52.5 -29t-65.5 -22.5t-75.5 -10q-105 0 -172.5 47.5t-67.5 137.5q0 77 45 135.5t107 97.5h-94v1010h327v-1010h-51q-59 -33 -104 -85t-45 -103q0 -50 34.5 -72.5t79.5 -22.5q34 0 74.5 14t63.5 29zM463 1296q0 -76 -52 -123
t-135 -47t-134.5 47t-51.5 123q0 75 51.5 122.5t134.5 47.5t135 -47.5t52 -122.5z" />
    <glyph glyph-name="Idotaccent" unicode="&#x130;" horiz-adv-x="589" 
d="M461 1413v-1413h-332v1413h332zM434 1671q0 -59 -40.5 -99t-98.5 -40q-59 0 -99 39.5t-40 99.5q0 59 40 98t99 39q58 0 98.5 -39t40.5 -98z" />
    <glyph glyph-name="dotlessi" unicode="&#x131;" horiz-adv-x="552" 
d="M440 1010v-1010h-327v1010h327z" />
    <glyph glyph-name="IJ" unicode="&#x132;" horiz-adv-x="1177" 
d="M461 1413v-1413h-332v1413h332zM1049 1413v-1384q0 -218 -88 -320q-90 -104 -256 -104q-67 0 -131 10.5t-80 19.5l12 244q49 -18 110 -18q57 0 80 41t23 123v1388h330z" />
    <glyph glyph-name="ij" unicode="&#x133;" horiz-adv-x="1105" 
d="M463 1296q0 -76 -52 -123t-135 -47t-134.5 47t-51.5 123q0 75 51.5 122.5t134.5 47.5t135 -47.5t52 -122.5zM440 1010v-1010h-327v1010h327zM1016 1296q0 -76 -52 -123t-135 -47t-134.5 47t-51.5 123q0 75 51.5 122.5t134.5 47.5t135 -47.5t52 -122.5zM993 1010v-985
q0 -210 -84 -304q-100 -112 -280 -112q-49 0 -92 4.5t-61 8.5l-19 5l6 254q41 -12 92 -12q64 0 87.5 42t23.5 130v969h327z" />
    <glyph glyph-name="Jcircumflex" unicode="&#x134;" horiz-adv-x="587" 
d="M459 1413v-1384q0 -218 -88 -320q-90 -104 -256 -104q-67 0 -131 10.5t-80 19.5l12 244q49 -18 111 -18q57 0 79.5 41t22.5 123v1388h330zM451 1817l174 -297h-219l-111 188l-111 -188h-221l176 297h312z" />
    <glyph glyph-name="jcircumflex" unicode="&#x135;" horiz-adv-x="552" 
d="M440 1010v-985q0 -210 -84 -304q-100 -112 -280 -112q-49 0 -92 4.5t-62 8.5l-18 5l6 254q41 -12 92 -12q64 0 87.5 42t23.5 130v969h327zM434 1413l174 -297h-219l-110 189l-111 -189h-221l176 297h311z" />
    <glyph glyph-name="Kcommaaccent" unicode="&#x136;" horiz-adv-x="1288" 
d="M791 850l532 -850h-397l-355 590l-112 -125v-465h-330v1413h330v-516l436 516h393zM553 -102h315l-116 -287h-269z" />
    <glyph glyph-name="kcommaaccent" unicode="&#x137;" horiz-adv-x="1128" 
d="M760 631l399 -631h-377l-247 393l-91 -88v-305h-327v1413h327v-737l308 334h376zM459 -102h315l-117 -287h-268z" />
    <glyph glyph-name="kgreenlandic" unicode="&#x138;" horiz-adv-x="1120" 
d="M752 631l399 -631h-377l-248 393l-90 -88v-305h-327v1010h327v-334l307 334h377z" />
    <glyph glyph-name="Lacute" unicode="&#x139;" horiz-adv-x="968" 
d="M948 274v-274h-819v1413h330v-1139h489zM330 1817h280l-211 -297h-231z" />
    <glyph glyph-name="lacute" unicode="&#x13a;" horiz-adv-x="559" 
d="M444 1413v-1413h-327v1413h327zM311 1853h281l-211 -297h-231z" />
    <glyph glyph-name="Lcommaaccent" unicode="&#x13b;" horiz-adv-x="968" 
d="M948 274v-274h-819v1413h330v-1139h489zM408 -102h315l-117 -287h-268z" />
    <glyph glyph-name="lcommaaccent" unicode="&#x13c;" horiz-adv-x="559" 
d="M444 1413v-1413h-327v1413h327zM141 -102h316l-117 -287h-268z" />
    <glyph glyph-name="Lcaron" unicode="&#x13d;" horiz-adv-x="968" 
d="M948 274v-274h-819v1413h330v-1139h489zM745 1413h314l-207 -510h-268z" />
    <glyph glyph-name="lcaron" unicode="&#x13e;" horiz-adv-x="921" 
d="M444 1413v-1413h-327v1413h327zM674 1413h313l-207 -510h-268z" />
    <glyph glyph-name="Ldot" unicode="&#x13f;" horiz-adv-x="1089" 
d="M948 274v-274h-819v1413h330v-1139h489zM1049 729q0 -78 -52 -126t-137 -48q-86 0 -138 48t-52 126t52 126t138 48q85 0 137 -48t52 -126z" />
    <glyph glyph-name="ldot" unicode="&#x140;" horiz-adv-x="1044" 
d="M444 1413v-1413h-327v1413h327zM956 614q0 -78 -51.5 -126t-136.5 -48q-86 0 -138 48t-52 126t52 126t138 48q85 0 136.5 -48t51.5 -126z" />
    <glyph glyph-name="Lslash" unicode="&#x141;" horiz-adv-x="968" 
d="M948 274v-274h-819v453l-98 -76v248l98 73v715h330v-491l215 161v-245l-215 -164v-400h489z" />
    <glyph glyph-name="lslash" unicode="&#x142;" horiz-adv-x="567" 
d="M549 1110v-246l-103 -88v-776h-327v520l-101 -88v246l101 88v647h327v-391z" />
    <glyph glyph-name="Nacute" unicode="&#x143;" horiz-adv-x="1536" 
d="M1407 1413v-1413h-340l-621 958q7 -169 7 -319v-639h-324v1413h354l607 -950q-7 159 -7 309v641h324zM797 1817h280l-211 -297h-231z" />
    <glyph glyph-name="nacute" unicode="&#x144;" horiz-adv-x="1202" 
d="M1100 596v-596h-328v526q0 55 -5.5 93.5t-21.5 72.5t-48 51t-81 17q-180 0 -180 -260v-500h-327v1010h327l-2 -146h4q100 164 293 164q86 0 151 -22t106 -59.5t66.5 -93.5t35.5 -118t10 -139zM582 1413h280l-211 -297h-231z" />
    <glyph glyph-name="Ncommaaccent" unicode="&#x145;" horiz-adv-x="1536" 
d="M1407 1413v-1413h-340l-621 958q7 -169 7 -319v-639h-324v1413h354l607 -950q-7 159 -7 309v641h324zM639 -102h315l-116 -287h-269z" />
    <glyph glyph-name="ncommaaccent" unicode="&#x146;" horiz-adv-x="1202" 
d="M1100 596v-596h-328v526q0 55 -5.5 93.5t-21.5 72.5t-48 51t-81 17q-180 0 -180 -260v-500h-327v1010h327l-2 -146h4q100 164 293 164q86 0 151 -22t106 -59.5t66.5 -93.5t35.5 -118t10 -139zM461 -102h315l-117 -287h-268z" />
    <glyph glyph-name="Ncaron" unicode="&#x147;" horiz-adv-x="1536" 
d="M1407 1413v-1413h-340l-621 958q7 -169 7 -319v-639h-324v1413h354l607 -950q-7 159 -7 309v641h324zM887 1817h219l-174 -297h-311l-177 297h222l110 -191z" />
    <glyph glyph-name="ncaron" unicode="&#x148;" horiz-adv-x="1202" 
d="M1100 596v-596h-328v526q0 55 -5.5 93.5t-21.5 72.5t-48 51t-81 17q-180 0 -180 -260v-500h-327v1010h327l-2 -146h4q100 164 293 164q86 0 151 -22t106 -59.5t66.5 -93.5t35.5 -118t10 -139zM713 1413h219l-174 -297h-312l-176 297h222l110 -190z" />
    <glyph glyph-name="Eng" unicode="&#x14a;" horiz-adv-x="1536" 
d="M1407 1413v-1384q0 -218 -88 -320q-90 -104 -256 -104q-67 0 -131 10.5t-80 19.5l12 244q49 -18 111 -18q102 0 108 139h-16l-621 958q7 -169 7 -319v-639h-324v1413h354l600 -942v942h324z" />
    <glyph glyph-name="eng" unicode="&#x14b;" horiz-adv-x="1202" 
d="M1100 596v-571q0 -210 -84 -304q-100 -112 -281 -112q-49 0 -92 4.5t-61 8.5l-19 5l6 254q42 -12 93 -12q64 0 87 42t23 130v485q0 55 -5.5 93.5t-21.5 72.5t-48 51t-81 17q-180 0 -180 -260v-500h-327v1010h327l-2 -146h4q100 164 293 164q86 0 151 -22t106 -59.5
t66.5 -93.5t35.5 -118t10 -139z" />
    <glyph glyph-name="Omacron" unicode="&#x14c;" horiz-adv-x="1613" 
d="M1556 705q0 -168 -58 -306.5t-159 -230.5t-238 -142.5t-294 -50.5q-211 0 -380 86t-269.5 253.5t-100.5 390.5q0 168 58 306.5t159.5 231t238.5 143t294 50.5t294 -50.5t238 -143t159 -231t58 -306.5zM1221 713q0 198 -117 319t-297 121t-297 -120.5t-117 -319.5
t117 -321t297 -122t297 122t117 321zM1130 1749v-158h-649v158h649z" />
    <glyph glyph-name="omacron" unicode="&#x14d;" horiz-adv-x="1220" 
d="M1169 502q0 -159 -73.5 -279.5t-199.5 -183t-286 -62.5t-286.5 62.5t-200.5 183t-74 279.5t74 280t200.5 183.5t286.5 62.5t286 -62.5t199.5 -183.5t73.5 -280zM840 508q0 115 -62.5 188.5t-167.5 73.5q-106 0 -167.5 -73.5t-61.5 -188.5t61.5 -188.5t167.5 -73.5
q105 0 167.5 73.5t62.5 188.5zM934 1346v-158h-649v158h649z" />
    <glyph glyph-name="Obreve" unicode="&#x14e;" horiz-adv-x="1613" 
d="M1556 705q0 -168 -58 -306.5t-159 -230.5t-238 -142.5t-294 -50.5q-211 0 -380 86t-269.5 253.5t-100.5 390.5q0 168 58 306.5t159.5 231t238.5 143t294 50.5t294 -50.5t238 -143t159 -231t58 -306.5zM1221 713q0 198 -117 319t-297 121t-297 -120.5t-117 -319.5
t117 -321t297 -122t297 122t117 321zM1012 1804h141q-20 -134 -112 -203t-234 -69q-144 0 -236 69t-112 203h143q19 -59 74 -87.5t131 -28.5t131 28.5t74 87.5z" />
    <glyph glyph-name="obreve" unicode="&#x14f;" horiz-adv-x="1220" 
d="M1169 502q0 -159 -73.5 -279.5t-199.5 -183t-286 -62.5t-286.5 62.5t-200.5 183t-74 279.5t74 280t200.5 183.5t286.5 62.5t286 -62.5t199.5 -183.5t73.5 -280zM840 508q0 115 -62.5 188.5t-167.5 73.5q-106 0 -167.5 -73.5t-61.5 -188.5t61.5 -188.5t167.5 -73.5
q105 0 167.5 73.5t62.5 188.5zM815 1401h141q-20 -134 -112 -203.5t-234 -69.5q-144 0 -236 69t-112 204h144q19 -59 73.5 -88t130.5 -29t131 29t74 88z" />
    <glyph glyph-name="Ohungarumlaut" unicode="&#x150;" horiz-adv-x="1613" 
d="M1556 705q0 -168 -58 -306.5t-159 -230.5t-238 -142.5t-294 -50.5q-211 0 -380 86t-269.5 253.5t-100.5 390.5q0 168 58 306.5t159.5 231t238.5 143t294 50.5t294 -50.5t238 -143t159 -231t58 -306.5zM1221 713q0 198 -117 319t-297 121t-297 -120.5t-117 -319.5
t117 -321t297 -122t297 122t117 321zM985 1817h275l-216 -297h-227zM621 1817h272l-215 -297h-227z" />
    <glyph glyph-name="ohungarumlaut" unicode="&#x151;" horiz-adv-x="1220" 
d="M1169 502q0 -159 -73.5 -279.5t-199.5 -183t-286 -62.5t-286.5 62.5t-200.5 183t-74 279.5t74 280t200.5 183.5t286.5 62.5t286 -62.5t199.5 -183.5t73.5 -280zM840 508q0 115 -62.5 188.5t-167.5 73.5q-106 0 -167.5 -73.5t-61.5 -188.5t61.5 -188.5t167.5 -73.5
q105 0 167.5 73.5t62.5 188.5zM776 1413h275l-215 -297h-228zM412 1413h272l-215 -297h-227z" />
    <glyph glyph-name="OE" unicode="&#x152;" horiz-adv-x="2025" 
d="M1950 268v-268h-860v37q-111 -62 -287 -62q-156 0 -292 50.5t-237 142.5t-159 231t-58 306q0 168 58 306.5t159 231t237 143t292 50.5q169 0 287 -62v39h841v-264h-530v-289h497v-264h-497v-328h549zM1071 350v725q-97 78 -268 78q-177 0 -293.5 -121t-116.5 -319
q0 -199 116.5 -321t293.5 -122q168 0 268 80z" />
    <glyph glyph-name="oe" unicode="&#x153;" horiz-adv-x="1923" 
d="M1880 535l-4 -109h-721q9 -101 80 -156t178 -55q91 0 170.5 29t134.5 67l127 -170q-1 -1 -14 -12t-23.5 -19t-30.5 -22.5t-41.5 -25.5t-50.5 -24.5t-62.5 -23.5t-72 -19t-85.5 -13.5t-97 -4.5q-244 0 -373 158q-134 -158 -385 -158q-160 0 -286.5 62.5t-200.5 183
t-74 279.5t74 280t200.5 183.5t286.5 62.5q242 0 389 -160q144 160 377 160q224 0 364 -136.5t140 -356.5zM1159 612h416q-3 78 -57.5 140.5t-149.5 62.5t-150.5 -61.5t-58.5 -141.5zM840 508q0 115 -62.5 188.5t-167.5 73.5q-106 0 -167.5 -73.5t-61.5 -188.5t61.5 -188.5
t167.5 -73.5q105 0 167.5 73.5t62.5 188.5z" />
    <glyph glyph-name="Racute" unicode="&#x154;" horiz-adv-x="1228" 
d="M889 584l358 -584h-385l-297 541h-104v-541h-332v1413h508q238 0 373 -100q73 -54 114 -137.5t41 -186.5q0 -95 -27.5 -170.5t-72.5 -121.5t-88 -72.5t-88 -40.5zM831 977q0 92 -71 143q-49 37 -170 37h-131v-362h131q118 0 170 39q71 51 71 143zM588 1817h280l-211 -297
h-231z" />
    <glyph glyph-name="racute" unicode="&#x155;" horiz-adv-x="792" 
d="M791 1010l-19 -301h-14q-43 24 -119 24q-50 0 -90 -22t-62 -52q-51 -67 -51 -210v-449h-327v1010h327l-2 -144h4q83 162 250 162q30 0 56 -4.5t36 -9.5zM434 1413h281l-211 -297h-232z" />
    <glyph glyph-name="Rcommaaccent" unicode="&#x156;" horiz-adv-x="1228" 
d="M889 584l358 -584h-385l-297 541h-104v-541h-332v1413h508q238 0 373 -100q73 -54 114 -137.5t41 -186.5q0 -95 -27.5 -170.5t-72.5 -121.5t-88 -72.5t-88 -40.5zM831 977q0 92 -71 143q-49 37 -170 37h-131v-362h131q118 0 170 39q71 51 71 143zM506 -102h315l-116 -287
h-269z" />
    <glyph glyph-name="rcommaaccent" unicode="&#x157;" horiz-adv-x="792" 
d="M791 1010l-19 -310q-61 33 -133 33q-50 0 -90 -22t-62 -52q-51 -67 -51 -210v-449h-327v1010h327l-2 -144h4q83 162 250 162q30 0 56 -4.5t36 -9.5zM186 -102h316l-117 -287h-268z" />
    <glyph glyph-name="Rcaron" unicode="&#x158;" horiz-adv-x="1228" 
d="M889 584l358 -584h-385l-297 541h-104v-541h-332v1413h508q238 0 373 -100q73 -54 114 -137.5t41 -186.5q0 -95 -27.5 -170.5t-72.5 -121.5t-88 -72.5t-88 -40.5zM831 977q0 92 -71 143q-49 37 -170 37h-131v-362h131q118 0 170 39q71 51 71 143zM692 1817h219l-174 -297
h-311l-176 297h221l111 -191z" />
    <glyph glyph-name="rcaron" unicode="&#x159;" horiz-adv-x="792" 
d="M791 1010l-19 -301h-14q-43 24 -119 24q-50 0 -90 -22t-62 -52q-51 -67 -51 -210v-449h-327v1010h327l-2 -144h4q83 162 250 162q30 0 56 -4.5t36 -9.5zM547 1413h219l-174 -297h-311l-177 297h222l110 -190z" />
    <glyph glyph-name="Sacute" unicode="&#x15a;" horiz-adv-x="1130" 
d="M1083 430q0 -100 -44 -188.5t-121 -149.5q-146 -117 -383 -117q-142 0 -273 61t-229 152l164 242q75 -78 180 -128t188 -50t136 38.5t53 106.5q0 27 -12.5 51t-27 38.5t-43 29.5t-41.5 20.5t-42 16.5l-99 36t-116 44q-3 1 -20 8.5t-26 12t-27.5 14t-32 18.5t-30.5 22
t-32 27q-111 104 -111 273q0 96 41 175t107 134q133 113 372 113q121 0 248 -50.5t201 -124.5l-141 -231q-63 63 -150.5 103t-165.5 40q-83 0 -133.5 -32.5t-50.5 -94.5q0 -30 12 -54t37.5 -41.5t43.5 -26t50 -21.5q34 -14 113.5 -43.5t97.5 -36.5q128 -46 197 -115
q110 -110 110 -272zM592 1817h280l-210 -297h-232z" />
    <glyph glyph-name="sacute" unicode="&#x15b;" horiz-adv-x="923" 
d="M879 311q0 -150 -119 -245q-116 -89 -309 -89q-120 0 -231.5 38.5t-194.5 117.5l122 195q61 -52 148.5 -87.5t150.5 -35.5q140 0 140 86q0 19 -14.5 35.5t-41.5 29t-46.5 20t-50.5 16.5t-32 9q-76 19 -143 48q-19 8 -36.5 17.5t-44 32t-45 49.5t-32.5 70.5t-14 94.5
q0 144 110 230.5t273 86.5q235 0 387 -125l-106 -192q-47 37 -121.5 67.5t-132.5 30.5q-121 0 -121 -74q0 -25 24.5 -45t51.5 -30t71 -23q76 -22 144 -47q81 -29 131 -76q82 -82 82 -205zM461 1413h280l-211 -297h-231z" />
    <glyph glyph-name="Scircumflex" unicode="&#x15c;" horiz-adv-x="1130" 
d="M1083 430q0 -100 -44 -188.5t-121 -149.5q-146 -117 -383 -117q-142 0 -273 61t-229 152l164 242q75 -78 180 -128t188 -50t136 38.5t53 106.5q0 27 -12.5 51t-27 38.5t-43 29.5t-41.5 20.5t-42 16.5l-99 36t-116 44q-3 1 -20 8.5t-26 12t-27.5 14t-32 18.5t-30.5 22
t-32 27q-111 104 -111 273q0 96 41 175t107 134q133 113 372 113q121 0 248 -50.5t201 -124.5l-141 -231q-63 63 -150.5 103t-165.5 40q-83 0 -133.5 -32.5t-50.5 -94.5q0 -30 12 -54t37.5 -41.5t43.5 -26t50 -21.5q34 -14 113.5 -43.5t97.5 -36.5q128 -46 197 -115
q110 -110 110 -272zM735 1817l174 -297h-219l-110 188l-111 -188h-221l176 297h311z" />
    <glyph glyph-name="scircumflex" unicode="&#x15d;" horiz-adv-x="923" 
d="M879 311q0 -150 -119 -245q-116 -89 -309 -89q-120 0 -231.5 38.5t-194.5 117.5l122 195q61 -52 148.5 -87.5t150.5 -35.5q140 0 140 86q0 19 -14.5 35.5t-41.5 29t-46.5 20t-50.5 16.5t-32 9q-76 19 -143 48q-19 8 -36.5 17.5t-44 32t-45 49.5t-32.5 70.5t-14 94.5
q0 144 110 230.5t273 86.5q235 0 387 -125l-106 -192q-47 37 -121.5 67.5t-132.5 30.5q-121 0 -121 -74q0 -25 24.5 -45t51.5 -30t71 -23q76 -22 144 -47q81 -29 131 -76q82 -82 82 -205zM627 1413l174 -297h-219l-111 189l-111 -189h-221l176 297h312z" />
    <glyph glyph-name="Scedilla" unicode="&#x15e;" horiz-adv-x="1130" 
d="M1083 430q0 -100 -44 -188.5t-121 -149.5q-73 -58 -177 -90l-149 -291h-248l172 264q-138 4 -263.5 64.5t-219.5 148.5l164 242q75 -78 180 -128t188 -50t136 38.5t53 106.5q0 27 -12.5 51t-27 38.5t-43 29.5t-41.5 20.5t-42 16.5l-99 36t-116 44q-3 1 -20 8.5t-26 12
t-27.5 14t-32 18.5t-30.5 22t-32 27q-111 104 -111 273q0 96 41 175t107 134q133 113 372 113q121 0 248 -50.5t201 -124.5l-141 -231q-63 63 -150.5 103t-165.5 40q-83 0 -133.5 -32.5t-50.5 -94.5q0 -30 12 -54t37.5 -41.5t43.5 -26t50 -21.5q34 -14 113.5 -43.5
t97.5 -36.5q128 -46 197 -115q110 -110 110 -272z" />
    <glyph glyph-name="scedilla" unicode="&#x15f;" horiz-adv-x="923" 
d="M879 311q0 -150 -119 -245q-58 -45 -123 -64l-145 -285h-248l168 263q-110 5 -211 43t-176 110l122 195q61 -52 148.5 -87.5t150.5 -35.5q140 0 140 86q0 19 -14.5 35.5t-41.5 29t-46.5 20t-50.5 16.5t-32 9q-76 19 -143 48q-19 8 -36.5 17.5t-44 32t-45 49.5t-32.5 70.5
t-14 94.5q0 144 110 230.5t273 86.5q235 0 387 -125l-106 -192q-47 37 -121.5 67.5t-132.5 30.5q-121 0 -121 -74q0 -25 24.5 -45t51.5 -30t71 -23q76 -22 144 -47q81 -29 131 -76q82 -82 82 -205z" />
    <glyph glyph-name="Scaron" unicode="&#x160;" horiz-adv-x="1130" 
d="M721 1794h219l-174 -297h-311l-176 297h221l110 -188zM1083 430q0 -100 -44 -188.5t-121 -149.5q-146 -117 -383 -117q-142 0 -273 61t-229 152l164 242q75 -78 180 -128t188 -50t136 38.5t53 106.5q0 27 -12.5 51t-27 38.5t-43 29.5t-41.5 20.5t-42 16.5l-99 36t-116 44
q-3 1 -20 8.5t-26 12t-27.5 14t-32 18.5t-30.5 22t-32 27q-111 104 -111 273q0 96 41 175t107 134q133 113 372 113q121 0 248 -50.5t201 -124.5l-141 -231q-63 63 -150.5 103t-165.5 40q-83 0 -133.5 -32.5t-50.5 -94.5q0 -30 12 -54t37.5 -41.5t43.5 -26t50 -21.5
q34 -14 113.5 -43.5t97.5 -36.5q128 -46 197 -115q110 -110 110 -272z" />
    <glyph glyph-name="scaron" unicode="&#x161;" horiz-adv-x="923" 
d="M580 1413h221l-176 -297h-312l-174 297h219l111 -190zM879 311q0 -150 -119 -245q-116 -89 -309 -89q-120 0 -231.5 38.5t-194.5 117.5l122 195q61 -52 148.5 -87.5t150.5 -35.5q140 0 140 86q0 19 -14.5 35.5t-41.5 29t-46.5 20t-50.5 16.5t-32 9q-76 19 -143 48
q-19 8 -36.5 17.5t-44 32t-45 49.5t-32.5 70.5t-14 94.5q0 144 110 230.5t273 86.5q235 0 387 -125l-106 -192q-47 37 -121.5 67.5t-132.5 30.5q-121 0 -121 -74q0 -25 24.5 -45t51.5 -30t71 -23q76 -22 144 -47q81 -29 131 -76q82 -82 82 -205z" />
    <glyph glyph-name="Tcommaaccent" unicode="&#x162;" horiz-adv-x="1077" 
d="M1069 1413v-262h-364v-1151h-332v1151h-365v262h1061zM416 -102h315l-117 -287h-268z" />
    <glyph glyph-name="tcommaaccent" unicode="&#x163;" horiz-adv-x="733" 
d="M711 1008v-248h-224v-363q0 -58 7 -83.5t22 -41.5q21 -24 78 -24q23 0 47.5 4.5t37.5 9.5l13 4l17 -256q-137 -33 -234 -33q-164 0 -246 95q-38 44 -54.5 112.5t-16.5 184.5v391h-144v248h144v274h329v-274h224zM285 -102h315l-117 -287h-268z" />
    <glyph glyph-name="Tcaron" unicode="&#x164;" horiz-adv-x="1077" 
d="M1069 1413v-262h-364v-1151h-332v1151h-365v262h1061zM649 1817h219l-174 -297h-311l-176 297h221l111 -191z" />
    <glyph glyph-name="tcaron" unicode="&#x165;" horiz-adv-x="733" 
d="M711 1008v-248h-224v-363q0 -58 7 -83.5t22 -41.5q21 -24 78 -24q23 0 47.5 4.5t37.5 9.5l13 4l17 -256q-137 -33 -234 -33q-164 0 -246 95q-38 44 -54.5 112.5t-16.5 184.5v391h-144v248h144v274h329v-274h224zM741 1636h314l-207 -510h-268z" />
    <glyph glyph-name="Tbar" unicode="&#x166;" horiz-adv-x="1077" 
d="M1069 1413v-262h-364v-332h178v-256h-178v-563h-332v563h-180v256h180v332h-365v262h1061z" />
    <glyph glyph-name="tbar" unicode="&#x167;" horiz-adv-x="733" 
d="M682 651v-211h-195v-43q0 -58 7 -83.5t22 -41.5q21 -24 78 -24q23 0 47.5 4.5t37.5 9.5l13 4l17 -256q-137 -33 -234 -33q-164 0 -246 95q-38 44 -54.5 112.5t-16.5 184.5v71h-125v211h125v109h-144v248h144v274h329v-274h224v-248h-224v-109h195z" />
    <glyph glyph-name="Utilde" unicode="&#x168;" horiz-adv-x="1421" 
d="M1303 1413v-823q0 -153 -31.5 -259t-104.5 -186q-155 -168 -456 -168t-459 168q-72 80 -102.5 186t-30.5 259v823h334v-823q0 -85 11 -140.5t44 -95.5q75 -88 203 -88q127 0 202 88q33 40 44.5 96t11.5 140v823h334zM940 1796l139 -20q-3 -97 -71 -166.5t-160 -69.5
q-20 0 -39.5 2.5t-31.5 5t-28.5 9t-22 9t-20.5 11t-16 8.5q-4 2 -30.5 18t-46.5 23.5t-40 7.5q-33 0 -57 -23.5t-35 -64.5l-141 21q3 97 72 166t161 69q15 0 30 -1.5t25.5 -3t23 -5.5t19.5 -6.5t18 -7.5t15 -7t14 -7.5t11 -6.5q5 -3 19 -12t23 -13.5t22.5 -11t26.5 -9.5
t26 -3q34 0 58.5 23.5t35.5 64.5z" />
    <glyph glyph-name="utilde" unicode="&#x169;" horiz-adv-x="1185" 
d="M1077 1010v-1010h-315l-2 115q-38 -54 -116.5 -96t-178.5 -42q-200 0 -289 119q-74 106 -74 303v611h328v-566q0 -95 33.5 -145.5t116.5 -50.5q85 0 127.5 60.5t42.5 164.5v537h327zM823 1393l140 -21q-3 -97 -71.5 -166t-160.5 -69q-20 0 -39.5 2.5t-31.5 5t-28.5 9
t-22 9t-20.5 11t-16 8.5q-4 2 -30.5 18t-46 23.5t-39.5 7.5q-33 0 -57 -23.5t-35 -64.5l-142 20q3 97 72.5 166.5t161.5 69.5q17 0 33 -1.5t30 -5t23.5 -6t22.5 -8.5t17 -8t17 -9l12 -7q5 -3 19 -12t23 -13.5t22.5 -11t26.5 -9.5t26 -3q34 0 58.5 23.5t35.5 64.5z" />
    <glyph glyph-name="Umacron" unicode="&#x16a;" horiz-adv-x="1421" 
d="M1303 1413v-823q0 -153 -31.5 -259t-104.5 -186q-155 -168 -456 -168t-459 168q-72 80 -102.5 186t-30.5 259v823h334v-823q0 -85 11 -140.5t44 -95.5q75 -88 203 -88q127 0 202 88q33 40 44.5 96t11.5 140v823h334zM1034 1749v-158h-649v158h649z" />
    <glyph glyph-name="umacron" unicode="&#x16b;" horiz-adv-x="1185" 
d="M1077 1010v-1010h-315l-2 115q-38 -54 -116.5 -96t-178.5 -42q-200 0 -289 119q-74 106 -74 303v611h328v-566q0 -95 33.5 -145.5t116.5 -50.5q85 0 127.5 60.5t42.5 164.5v537h327zM918 1346v-158h-650v158h650z" />
    <glyph glyph-name="Ubreve" unicode="&#x16c;" horiz-adv-x="1421" 
d="M1303 1413v-823q0 -153 -31.5 -259t-104.5 -186q-155 -168 -456 -168t-459 168q-72 80 -102.5 186t-30.5 259v823h334v-823q0 -85 11 -140.5t44 -95.5q75 -88 203 -88q127 0 202 88q33 40 44.5 96t11.5 140v823h334zM915 1804h142q-20 -134 -112 -203t-234 -69
q-144 0 -236.5 69t-112.5 203h144q19 -59 74 -87.5t131 -28.5t130.5 28.5t73.5 87.5z" />
    <glyph glyph-name="ubreve" unicode="&#x16d;" horiz-adv-x="1185" 
d="M1077 1010v-1010h-315l-2 115q-38 -54 -116.5 -96t-178.5 -42q-200 0 -289 119q-74 106 -74 303v611h328v-566q0 -95 33.5 -145.5t116.5 -50.5q85 0 127.5 60.5t42.5 164.5v537h327zM799 1401h141q-20 -134 -112 -203.5t-234 -69.5q-144 0 -236 69t-112 204h143
q19 -59 74 -88t131 -29t131 29t74 88z" />
    <glyph glyph-name="Uring" unicode="&#x16e;" horiz-adv-x="1421" 
d="M1303 1413v-823q0 -153 -31.5 -259t-104.5 -186q-155 -168 -456 -168t-459 168q-72 80 -102.5 186t-30.5 259v823h334v-823q0 -85 11 -140.5t44 -95.5q75 -88 203 -88q127 0 202 88q33 40 44.5 96t11.5 140v823h334zM946 1720q0 -96 -68 -152.5t-167 -56.5
q-101 0 -168.5 56t-67.5 153q0 98 67.5 154.5t168.5 56.5q100 0 167.5 -56.5t67.5 -154.5zM815 1720q0 45 -29 73t-75 28t-75.5 -28t-29.5 -73t29 -71.5t76 -26.5q46 0 75 26.5t29 71.5z" />
    <glyph glyph-name="uring" unicode="&#x16f;" horiz-adv-x="1185" 
d="M1077 1010v-1010h-315l-2 115q-38 -54 -116.5 -96t-178.5 -42q-200 0 -289 119q-74 106 -74 303v611h328v-566q0 -95 33.5 -145.5t116.5 -50.5q85 0 127.5 60.5t42.5 164.5v537h327zM827 1317q0 -96 -68 -152.5t-167 -56.5q-101 0 -168.5 56t-67.5 153q0 98 67.5 154.5
t168.5 56.5q100 0 167.5 -56.5t67.5 -154.5zM696 1317q0 45 -29 72.5t-75 27.5t-75.5 -27.5t-29.5 -72.5t29 -71.5t76 -26.5q46 0 75 26.5t29 71.5z" />
    <glyph glyph-name="Uhungarumlaut" unicode="&#x170;" horiz-adv-x="1421" 
d="M1303 1413v-823q0 -153 -31.5 -259t-104.5 -186q-155 -168 -456 -168t-459 168q-72 80 -102.5 186t-30.5 259v823h334v-823q0 -85 11 -140.5t44 -95.5q75 -88 203 -88q127 0 202 88q33 40 44.5 96t11.5 140v823h334zM932 1817h274l-215 -297h-227zM567 1817h273
l-215 -297h-228z" />
    <glyph glyph-name="uhungarumlaut" unicode="&#x171;" horiz-adv-x="1185" 
d="M1077 1010v-1010h-315l-2 115q-38 -54 -116.5 -96t-178.5 -42q-200 0 -289 119q-74 106 -74 303v611h328v-566q0 -95 33.5 -145.5t116.5 -50.5q85 0 127.5 60.5t42.5 164.5v537h327zM758 1413h274l-215 -297h-227zM393 1413h273l-215 -297h-228z" />
    <glyph glyph-name="Uogonek" unicode="&#x172;" horiz-adv-x="1421" 
d="M971 -240l43 -84q-4 -4 -12.5 -10t-34 -22.5t-52.5 -29t-65.5 -22.5t-75.5 -10q-105 0 -172 47.5t-67 137.5q0 126 120 213q-265 15 -403 165q-72 80 -102.5 186t-30.5 259v823h334v-823q0 -85 11 -140.5t44 -95.5q75 -88 203 -88q127 0 202 88q33 40 44.5 96t11.5 140
v823h334v-823q0 -153 -31.5 -259t-104.5 -186q-119 -128 -321 -157q-53 -35 -90 -82t-37 -94q0 -50 35 -72.5t80 -22.5q34 0 74 14t63 29z" />
    <glyph glyph-name="uogonek" unicode="&#x173;" horiz-adv-x="1185" 
d="M1047 -240l43 -84q-4 -4 -12.5 -10t-34 -22.5t-52.5 -29t-65.5 -22.5t-75.5 -10q-105 0 -172.5 47.5t-67.5 137.5q0 77 45 135.5t107 97.5l-2 115q-38 -54 -116.5 -96t-178.5 -42q-200 0 -289 119q-74 106 -74 303v611h328v-566q0 -95 33.5 -145.5t116.5 -50.5
q85 0 127.5 60.5t42.5 164.5v537h327v-1010q-72 0 -129 -18.5t-89 -48t-48 -60.5t-16 -61q0 -50 34.5 -72.5t79.5 -22.5q34 0 74.5 14t63.5 29z" />
    <glyph glyph-name="Wcircumflex" unicode="&#x174;" horiz-adv-x="2011" 
d="M1671 1413h346l-409 -1413h-334l-268 969l-269 -969h-334l-409 1413h346l246 -952l254 952h331l256 -952zM1161 1817l174 -297h-219l-110 188l-111 -188h-221l176 297h311z" />
    <glyph glyph-name="wcircumflex" unicode="&#x175;" horiz-adv-x="1685" 
d="M1350 1010h331l-331 -1010h-310l-196 618l-199 -618h-309l-332 1010h332l178 -645l195 645h268l194 -645zM999 1413l175 -297h-220l-110 189l-111 -189h-221l176 297h311z" />
    <glyph glyph-name="Ycircumflex" unicode="&#x176;" horiz-adv-x="1269" 
d="M924 1413h368l-491 -842v-571h-332v571l-492 842h369l289 -563zM791 1817l174 -297h-220l-110 188l-111 -188h-221l176 297h312z" />
    <glyph glyph-name="ycircumflex" unicode="&#x177;" horiz-adv-x="1114" 
d="M791 1010h337l-450 -1106q-61 -148 -134 -219.5t-194 -71.5q-76 0 -146 12.5t-102 24.5l-32 12l65 242q72 -27 121 -27q24 0 37 2t30.5 17.5t30.5 46.5l37 88l-399 979h342l229 -650zM713 1413l174 -297h-219l-111 189l-111 -189h-221l176 297h312z" />
    <glyph glyph-name="Ydieresis" unicode="&#x178;" horiz-adv-x="1269" 
d="M958 1647q0 -61 -40 -99.5t-99 -38.5t-98 38.5t-39 99.5t39 99t98 38t99 -38t40 -99zM588 1647q0 -61 -39 -99.5t-98 -38.5t-99.5 38.5t-40.5 99.5t40 99t100 38q59 0 98 -38t39 -99zM924 1413h368l-491 -842v-571h-332v571l-492 842h369l289 -563z" />
    <glyph glyph-name="Zacute" unicode="&#x179;" horiz-adv-x="1255" 
d="M1204 274v-274h-1143v240l693 905h-672v268h1100v-225l-699 -914h721zM621 1817h280l-211 -297h-231z" />
    <glyph glyph-name="zacute" unicode="&#x17a;" horiz-adv-x="1015" 
d="M983 260v-260h-950v188l510 572h-488v248h903v-183l-503 -565h528zM487 1413h281l-211 -297h-231z" />
    <glyph glyph-name="Zdotaccent" unicode="&#x17b;" horiz-adv-x="1255" 
d="M1204 274v-274h-1143v240l693 905h-672v268h1100v-225l-699 -914h721zM766 1671q0 -59 -40.5 -99t-98.5 -40q-59 0 -99.5 39.5t-40.5 99.5q0 59 40.5 98t99.5 39q58 0 98.5 -39t40.5 -98z" />
    <glyph glyph-name="zdotaccent" unicode="&#x17c;" horiz-adv-x="1015" 
d="M983 260v-260h-950v188l510 572h-488v248h903v-183l-503 -565h528zM647 1268q0 -59 -40.5 -99.5t-98.5 -40.5q-59 0 -99 40t-40 100q0 59 40 98t99 39q58 0 98.5 -39t40.5 -98z" />
    <glyph glyph-name="Zcaron" unicode="&#x17d;" horiz-adv-x="1255" 
d="M743 1794h220l-175 -297h-311l-176 297h221l111 -188zM1204 274v-274h-1143v240l693 905h-672v268h1100v-225l-699 -914h721z" />
    <glyph glyph-name="zcaron" unicode="&#x17e;" horiz-adv-x="1015" 
d="M618 1413h220l-174 -297h-312l-176 297h221l111 -190zM983 260v-260h-950v188l510 572h-488v248h903v-183l-503 -565h528z" />
    <glyph glyph-name="florin" unicode="&#x192;" 
d="M1186 1421l-74 -227q-55 35 -115 35q-56 0 -84 -41t-43 -121l-30 -164h219l-41 -221h-219l-105 -563q-18 -94 -46.5 -161t-75 -119t-117 -77.5t-166.5 -25.5q-44 0 -92 11.5t-74 22.5t-33 17l80 236q45 -23 106 -23q33 0 59 20.5t36.5 40t17.5 41.5q9 28 35 150l82 430
h-193l41 221h193l35 191q26 135 55 190q56 106 119 150q77 51 182 51q120 0 248 -64z" />
    <glyph glyph-name="AEacute" unicode="&#x1fc;" horiz-adv-x="1898" 
d="M1825 268v-268h-875v287h-493l-162 -287h-373l854 1413h1030v-264h-526v-285h494v-264h-494v-332h545zM602 545h348v608h-6zM1253 1817h281l-211 -297h-231z" />
    <glyph glyph-name="aeacute" unicode="&#x1fd;" horiz-adv-x="1771" 
d="M1729 535q0 -24 -1.5 -51t-3.5 -42l-2 -16h-718q9 -100 81.5 -155.5t176.5 -55.5q88 0 168.5 29.5t134.5 66.5l129 -170q-1 0 -20 -16.5t-35.5 -27.5t-47.5 -30.5t-67 -33.5t-81.5 -27.5t-103.5 -21t-122 -7.5q-261 0 -406 166q-88 -88 -177 -127t-226 -39
q-99 0 -180.5 33.5t-135 108t-53.5 180.5q0 82 34.5 143t94 95t125.5 51t143 20l250 10v25q0 77 -53.5 118.5t-153.5 41.5q-88 0 -173.5 -29t-135.5 -61l-86 213q204 102 432 102q184 0 281 -61q13 -9 25.5 -18.5t21 -18t15 -14.5t11.5 -12l4 -5q126 129 349 129
q224 0 365 -137.5t141 -355.5zM1006 612h415q-2 78 -56 140.5t-148 62.5q-96 0 -151 -61.5t-60 -141.5zM717 289q-33 85 -33 155l-156 -8q-78 -4 -119.5 -37t-41.5 -88q0 -58 41.5 -91.5t109.5 -33.5q62 0 118.5 33.5t80.5 69.5zM887 1413h280l-211 -297h-231z" />
    <glyph glyph-name="Oslashacute" unicode="&#x1fe;" horiz-adv-x="1613" 
d="M854 1794h279l-209 -297h-234zM1556 705q0 -168 -58 -306.5t-159 -230.5t-238 -142.5t-294 -50.5q-260 0 -449 129l-151 -153l-148 143l148 150q-150 190 -150 461q0 168 58 306.5t159.5 231t238.5 143t294 50.5q259 0 448 -129l154 155l147 -143l-149 -152
q149 -189 149 -462zM444 483l594 604q-101 66 -231 66q-180 0 -297 -120.5t-117 -319.5q0 -128 51 -230zM1221 713q0 123 -47 219l-590 -600q100 -62 223 -62q180 0 297 122t117 321z" />
    <glyph glyph-name="oslashacute" unicode="&#x1ff;" horiz-adv-x="1220" 
d="M635 1413h280l-208 -297h-234zM1047 1053l124 -121l-106 -105q104 -136 104 -325q0 -159 -73.5 -279.5t-199.5 -183t-286 -62.5q-186 0 -327 86l-113 -108l-125 121l107 104q-103 141 -103 322q0 159 74 280t200.5 183.5t286.5 62.5q181 0 324 -84zM391 406l342 335
q-50 35 -123 35q-107 0 -171 -74.5t-64 -193.5q0 -52 16 -102zM848 508q0 49 -17 98l-339 -334q53 -32 118 -32q108 0 173 75t65 193z" />
    <glyph glyph-name="dotlessj" unicode="&#x237;" horiz-adv-x="552" 
d="M440 1010v-985q0 -210 -84 -304q-100 -112 -280 -112q-49 0 -92 4.5t-62 8.5l-18 5l6 254q41 -12 92 -12q64 0 87.5 42t23.5 130v969h327z" />
    <glyph glyph-name="circumflex" unicode="&#x2c6;" horiz-adv-x="854" 
d="M584 1413l174 -297h-219l-111 189l-111 -189h-221l176 297h312z" />
    <glyph glyph-name="caron" unicode="&#x2c7;" horiz-adv-x="854" 
d="M539 1413h219l-174 -297h-312l-176 297h221l111 -190z" />
    <glyph glyph-name="breve" unicode="&#x2d8;" horiz-adv-x="854" 
d="M633 1401h141q-20 -134 -112 -203.5t-234 -69.5q-144 0 -236 69t-112 204h143q19 -59 74 -88t131 -29t131 29t74 88z" />
    <glyph glyph-name="dotaccent" unicode="&#x2d9;" horiz-adv-x="854" 
d="M567 1268q0 -59 -40.5 -99.5t-98.5 -40.5q-59 0 -99 40t-40 100q0 59 40 98t99 39q58 0 98.5 -39t40.5 -98z" />
    <glyph glyph-name="ring" unicode="&#x2da;" horiz-adv-x="854" 
d="M664 1317q0 -96 -68 -152.5t-168 -56.5q-101 0 -168 56t-67 153q0 98 67 154.5t168 56.5q100 0 168 -56.5t68 -154.5zM532 1317q0 45 -29 72.5t-75 27.5t-75 -27.5t-29 -72.5t29 -71.5t75 -26.5t75 26.5t29 71.5z" />
    <glyph glyph-name="ogonek" unicode="&#x2db;" horiz-adv-x="854" 
d="M625 -240l43 -84q-4 -4 -12.5 -10t-34 -22.5t-52.5 -29t-65.5 -22.5t-75.5 -10q-105 0 -172.5 47.5t-67.5 137.5q0 144 168 243h166v-10q-59 -33 -104 -85t-45 -103q0 -50 34.5 -72.5t79.5 -22.5q34 0 74.5 14t63.5 29z" />
    <glyph glyph-name="tilde" unicode="&#x2dc;" horiz-adv-x="854" 
d="M657 1393l140 -21q-3 -97 -71.5 -166t-160.5 -69q-20 0 -39 2.5t-31.5 5.5t-28.5 9t-22 9t-20 10.5t-16 8.5q-4 2 -30.5 18t-46.5 23.5t-40 7.5q-33 0 -57 -23.5t-35 -64.5l-142 20q3 97 72.5 166.5t161.5 69.5q17 0 33 -1.5t30 -5t23.5 -6t22.5 -8.5t17 -8t17 -9l12 -7
q5 -3 19 -12t23 -13.5t22.5 -11t26.5 -9.5t26 -3q34 0 58.5 23.5t35.5 64.5z" />
    <glyph glyph-name="hungarumlaut" unicode="&#x2dd;" horiz-adv-x="854" 
d="M557 1413h274l-215 -297h-227zM193 1413h272l-215 -297h-227z" />
    <glyph glyph-name="Wgrave" unicode="&#x1e80;" horiz-adv-x="2011" 
d="M1671 1413h346l-409 -1413h-334l-268 969l-269 -969h-334l-409 1413h346l246 -952l254 952h331l256 -952zM1063 1817l164 -297h-234l-209 297h279z" />
    <glyph glyph-name="wgrave" unicode="&#x1e81;" horiz-adv-x="1685" 
d="M1350 1010h331l-331 -1010h-310l-196 618l-199 -618h-309l-332 1010h332l178 -645l195 645h268l194 -645zM899 1413l164 -297h-234l-208 297h278z" />
    <glyph glyph-name="Wacute" unicode="&#x1e82;" horiz-adv-x="2011" 
d="M1671 1413h346l-409 -1413h-334l-268 969l-269 -969h-334l-409 1413h346l246 -952l254 952h331l256 -952zM946 1817h281l-211 -297h-232z" />
    <glyph glyph-name="wacute" unicode="&#x1e83;" horiz-adv-x="1685" 
d="M1350 1010h331l-331 -1010h-310l-196 618l-199 -618h-309l-332 1010h332l178 -645l195 645h268l194 -645zM782 1413h281l-211 -297h-231z" />
    <glyph glyph-name="Wdieresis" unicode="&#x1e84;" horiz-adv-x="2011" 
d="M1671 1413h346l-409 -1413h-334l-268 969l-269 -969h-334l-409 1413h346l246 -952l254 952h331l256 -952zM1329 1667q0 -61 -39 -98t-98 -37q-60 0 -99.5 37.5t-39.5 97.5q0 61 40 99t99 38t98 -38t39 -99zM956 1667q0 -61 -39 -98t-98 -37q-60 0 -99.5 37.5t-39.5 97.5
q0 61 40 99t99 38t98 -38t39 -99z" />
    <glyph glyph-name="wdieresis" unicode="&#x1e85;" horiz-adv-x="1685" 
d="M1350 1010h331l-331 -1010h-310l-196 618l-199 -618h-309l-332 1010h332l178 -645l195 645h268l194 -645zM1167 1264q0 -61 -39 -98.5t-98 -37.5q-60 0 -99.5 37.5t-39.5 98.5t40 99t99 38t98 -38t39 -99zM795 1264q0 -61 -39.5 -98.5t-98.5 -37.5q-60 0 -99.5 37.5
t-39.5 98.5t40 99t99 38t98.5 -38t39.5 -99z" />
    <glyph glyph-name="Ygrave" unicode="&#x1ef2;" horiz-adv-x="1269" 
d="M924 1413h368l-491 -842v-571h-332v571l-492 842h369l289 -563zM631 1817l164 -297h-234l-209 297h279z" />
    <glyph glyph-name="ygrave" unicode="&#x1ef3;" horiz-adv-x="1114" 
d="M791 1010h337l-450 -1106q-61 -148 -134 -219.5t-194 -71.5q-76 0 -146 12.5t-102 24.5l-32 12l65 242q72 -27 121 -27q24 0 37 2t30.5 17.5t30.5 46.5l37 88l-399 979h342l229 -650zM553 1413l164 -297h-234l-209 297h279z" />
    <glyph glyph-name="endash" unicode="&#x2013;" horiz-adv-x="985" 
d="M985 672v-246h-985v246h985z" />
    <glyph glyph-name="emdash" unicode="&#x2014;" horiz-adv-x="1894" 
d="M1862 672v-246h-1829v246h1829z" />
    <glyph glyph-name="quoteleft" unicode="&#x2018;" horiz-adv-x="724" 
d="M344 1413h268l-161 -510h-316z" />
    <glyph glyph-name="quoteright" unicode="&#x2019;" horiz-adv-x="724" 
d="M274 1413h314l-207 -510h-268z" />
    <glyph glyph-name="quotesinglbase" unicode="&#x201a;" horiz-adv-x="724" 
d="M274 268h314l-207 -510h-268z" />
    <glyph glyph-name="quotedblleft" unicode="&#x201c;" horiz-adv-x="1165" 
d="M793 1413h254l-162 -510h-301zM350 1413h256l-162 -510h-303z" />
    <glyph glyph-name="quotedblright" unicode="&#x201d;" horiz-adv-x="1165" 
d="M721 1413h303l-209 -510h-254zM281 1413h301l-209 -510h-254z" />
    <glyph glyph-name="quotedblbase" unicode="&#x201e;" horiz-adv-x="1165" 
d="M721 268h303l-209 -510h-254zM281 268h301l-209 -510h-254z" />
    <glyph glyph-name="dagger" unicode="&#x2020;" horiz-adv-x="1357" 
d="M1212 1008v-242h-401v-1085h-264v1085h-402v242h402v483h264v-483h401z" />
    <glyph glyph-name="daggerdbl" unicode="&#x2021;" horiz-adv-x="1357" 
d="M1212 381v-242h-401v-458h-264v458h-402v242h402v412h-402v241h402v457h264v-457h401v-241h-401v-412h401z" />
    <glyph glyph-name="bullet" unicode="&#x2022;" horiz-adv-x="1234" 
d="M958 748q0 -139 -101 -240.5t-239 -101.5q-140 0 -241 101t-101 241t101 241t241 101q138 0 239 -101.5t101 -240.5z" />
    <glyph glyph-name="ellipsis" unicode="&#x2026;" horiz-adv-x="1990" 
d="M1831 154q0 -80 -53 -126t-138 -46q-86 0 -138 45.5t-52 126.5t52 127.5t138 46.5q85 0 138 -47t53 -127zM1186 154q0 -80 -52.5 -126t-138.5 -46t-138 45.5t-52 126.5t52 127.5t138 46.5t138.5 -46.5t52.5 -127.5zM541 154q0 -80 -52.5 -126t-138.5 -46t-138 45.5
t-52 126.5t52 127.5t138 46.5t138.5 -46.5t52.5 -127.5z" />
    <glyph glyph-name="perthousand" unicode="&#x2030;" horiz-adv-x="2578" 
d="M2492 340q0 -165 -102 -266t-264 -101q-161 0 -264 101.5t-103 265.5t103 265.5t264 101.5q162 0 264 -101t102 -266zM1686 340q0 -165 -102.5 -266t-264.5 -101t-264.5 101t-102.5 266t102.5 266t264.5 101t264.5 -101t102.5 -266zM1255 1450l140 -84l-879 -1415
l-141 84zM817 1061q0 -165 -102 -267t-264 -102q-161 0 -264 102t-103 267q0 164 103 265t264 101q162 0 264 -100.5t102 -265.5zM2281 344q0 79 -41 127.5t-114 48.5q-72 0 -111 -48.5t-39 -127.5q0 -80 39 -129t111 -49q73 0 114 49t41 129zM1473 344q0 79 -40.5 127.5
t-113.5 48.5q-72 0 -112 -48.5t-40 -127.5q0 -80 40 -129t112 -49q73 0 113.5 49t40.5 129zM606 1063q0 80 -41 129t-114 49q-72 0 -111 -49t-39 -129q0 -79 39.5 -128.5t110.5 -49.5q73 0 114 49.5t41 128.5z" />
    <glyph glyph-name="guilsinglleft" unicode="&#x2039;" horiz-adv-x="749" 
d="M375 504l241 -330l-161 -113l-328 443l328 444l161 -114z" />
    <glyph glyph-name="guilsinglright" unicode="&#x203a;" horiz-adv-x="749" 
d="M295 948l328 -444l-328 -443l-162 115l242 328l-242 332z" />
    <glyph glyph-name="fraction" unicode="&#x2044;" horiz-adv-x="561" 
d="M664 1497l139 -86l-905 -1464l-140 84z" />
    <glyph glyph-name="Euro" unicode="&#x20ac;" 
d="M1120 367l99 -234l-15 -15q-14 -14 -28 -25t-40 -29.5t-58 -32t-72 -27t-93 -20.5t-112 -7q-219 0 -367 123.5t-201 366.5h-131v190h105q-2 31 -2 60v55h-103v189h136q23 108 78 201t128 153q143 119 365 119q120 0 218.5 -31t148.5 -64l-76 -260q-109 103 -271 103
q-217 0 -258 -221h394v-189h-430q-3 -30 -3 -55l3 -60h430v-190h-394q14 -103 81.5 -163t174.5 -60q66 0 128 22.5t94 45t71 55.5z" />
    <glyph glyph-name="trademark" unicode="&#x2122;" horiz-adv-x="1816" 
d="M1642 1413l56 -838h-178l-33 603h-4l-180 -603h-148l-178 603h-6l-31 -603h-180l57 838h240l170 -577h6l170 577h239zM717 1413v-147h-221v-691h-177v691h-223v147h621z" />
    <glyph glyph-name="product" unicode="&#x220f;" horiz-adv-x="1787" 
d="M1686 633v-225h-199q-58 -144 -174 -240q-201 -168 -545 -168h-479v408h-187v225h187v158h-187v225h187v397h479q342 0 545 -170q114 -100 170 -227h203v-225h-148q4 -54 4 -84q0 -28 -4 -74h148zM1206 707q0 43 -6 84h-582v-158h584q4 46 4 74zM618 281h168
q189 0 295 102q13 9 25 25h-488v-127zM1102 1016l-21 22q-108 101 -295 101h-168v-123h484z" />
    <glyph glyph-name="minus" unicode="&#x2212;" horiz-adv-x="1435" 
d="M1280 825v-237h-1124v237h1124z" />
    <glyph glyph-name="notequal" unicode="&#x2260;" horiz-adv-x="1435" 
d="M1280 600v-240h-506l-49 -233h-246l49 233h-372v240h417l43 213h-460v240h506l49 233h245l-49 -233h373v-240h-418l-43 -213h461z" />
    <glyph glyph-name="lessequal" unicode="&#x2264;" horiz-adv-x="2015" 
d="M733 -2q-47 0 -81 34t-34 81t34 80.5t81 33.5t81 -33.5t34 -80.5t-34 -81t-81 -34zM559 233q-47 0 -81 34t-34 81t34 81t81 34t81 -34t34 -81t-34 -81t-81 -34zM385 469q-47 0 -81 34t-34 81t34 80.5t81 33.5t81 -33.5t34 -80.5t-34 -81t-81 -34zM733 1640q47 0 81 -33.5
t34 -80.5t-34 -81t-81 -34t-81 34t-34 81t34 80.5t81 33.5zM559 1405q47 0 81 -34t34 -81t-34 -80.5t-81 -33.5t-81 33.5t-34 80.5t34 81t81 34zM385 1169q47 0 81 -33.5t34 -80.5t-34 -81t-81 -34t-81 34t-34 81t34 80.5t81 33.5zM1901 934q47 0 80.5 -34t33.5 -81
t-33.5 -80.5t-80.5 -33.5t-81 33.5t-34 80.5t34 81t81 34zM1563 934q47 0 80.5 -34t33.5 -81t-33.5 -80.5t-80.5 -33.5t-81 33.5t-34 80.5t34 81t81 34zM549 934q47 0 81 -34t34 -81t-34 -80.5t-81 -33.5t-81 33.5t-34 80.5t34 81t81 34zM211 934q47 0 81 -34t34 -81
t-34 -80.5t-81 -33.5t-81 33.5t-34 80.5t34 81t81 34zM887 934q47 0 80.5 -34t33.5 -81t-33.5 -80.5t-80.5 -33.5q-46 0 -80.5 33.5t-34.5 80.5t34.5 81t80.5 34zM1225 934q47 0 80.5 -34t33.5 -81t-33.5 -80.5t-80.5 -33.5t-81 33.5t-34 80.5t34 81t81 34z" />
    <glyph glyph-name="greaterequal" unicode="&#x2265;" horiz-adv-x="2015" 
d="M791 934q47 0 80.5 -34t33.5 -81t-33.5 -80.5t-80.5 -33.5t-81 33.5t-34 80.5t34 81t81 34zM1128 934q46 0 80.5 -34t34.5 -81t-34.5 -80.5t-80.5 -33.5q-47 0 -80.5 33.5t-33.5 80.5t33.5 81t80.5 34zM1804 934q47 0 81 -34t34 -81t-34 -80.5t-81 -33.5t-80.5 33.5
t-33.5 80.5t33.5 81t80.5 34zM1466 934q47 0 81 -34t34 -81t-34 -80.5t-81 -33.5t-80.5 33.5t-33.5 80.5t33.5 81t80.5 34zM453 934q47 0 80.5 -34t33.5 -81t-33.5 -80.5t-80.5 -33.5t-81 33.5t-34 80.5t34 81t81 34zM115 934q47 0 80.5 -34t33.5 -81t-33.5 -80.5
t-80.5 -33.5t-81 33.5t-34 80.5t34 81t81 34zM1630 1169q47 0 81 -33.5t34 -80.5t-34 -81t-81 -34t-80.5 34t-33.5 81t33.5 80.5t80.5 33.5zM1456 1405q47 0 81 -34t34 -81t-34 -80.5t-81 -33.5t-81 33.5t-34 80.5t34 81t81 34zM1282 1640q47 0 81 -33.5t34 -80.5t-34 -81
t-81 -34t-81 34t-34 81t34 80.5t81 33.5zM1630 469q-47 0 -80.5 34t-33.5 81t33.5 80.5t80.5 33.5t81 -33.5t34 -80.5t-34 -81t-81 -34zM1456 233q-47 0 -81 34t-34 81t34 81t81 34t81 -34t34 -81t-34 -81t-81 -34zM1282 -2q-47 0 -81 34t-34 81t34 80.5t81 33.5t81 -33.5
t34 -80.5t-34 -81t-81 -34z" />
    <glyph glyph-name="commaaccent" unicode="&#xf6c3;" horiz-adv-x="667" 
d="M213 -102h315l-116 -287h-269z" />
    <glyph glyph-name="apple" unicode="&#xf8ff;" horiz-adv-x="2947" 
d="M1288 -127h-14q51 44 51 92q0 73 -59 84q10 -63 10 -106q0 -78 -66 -119t-147 -41q-54 0 -95.5 30t-41.5 81q0 47 31.5 66.5t62.5 19.5q15 0 27 -3q27 56 92 82v7q-6 14 -6 47q-41 -84 -113 -84q-39 0 -65.5 42t-26.5 103q0 44 36.5 137t36.5 121q0 47 -18 47
q-23 0 -44 -24t-24 -37q0 -74 -69 -109q0 -291 -238 -291q-69 0 -116.5 33t-47.5 101q0 42 25 77t63 35q27 0 39.5 -17.5t12.5 -41.5q0 -43 -22.5 -77t-61.5 -34q-6 0 -17.5 4.5t-15.5 5.5q6 -24 26.5 -41.5t41.5 -17.5q23 0 42 10t34.5 32.5t26 43t22 57.5t17 58.5
t15.5 62.5q-45 18 -71 64q-18 -6 -29 -6q-115 0 -115 118q0 92 65 165t158 73q56 0 95.5 -12.5t64 -25.5t43.5 -13q13 0 33 4v-8q-53 -12 -104 -47.5t-84 -81.5q-4 38 -33 62t-70 24q-59 0 -105 -50.5t-46 -111.5q0 -86 92 -86q16 0 28 6q-10 20 -10 57q0 41 22 70t44 29
q17 0 26 -12t9 -29q0 -33 -22 -66t-52 -51q16 -38 63 -57q33 135 97 215q20 26 63.5 59t79.5 37v-10q-96 -46 -96 -224q0 -19 4 -77q65 33 65 94q0 51 -24 78v2q11 -6 19.5 -24.5t10.5 -37.5q13 26 39 46t62 20q47 0 71.5 -44t24.5 -108q0 -23 -36 -117.5t-36 -136.5
q0 -35 19 -35q24 0 44.5 31t36 85.5t27 106.5t24 118t19.5 96q34 -17 54 -17q11 0 22 4t16 7t17 11.5t14 10.5q-5 -26 -25.5 -116.5t-33 -161t-12.5 -119.5v-15l2 -28q34 -8 54.5 -35t20.5 -68q0 -56 -49 -98zM2853 184l-232 -45l17 -82l-144 115q-51 -118 -131 -201
q35 -14 84 -14q59 0 94 21t56 63h4q-7 -47 -51 -75.5t-94 -28.5q-51 0 -109 20q-118 -121 -231 -121q-119 0 -119 195q-2 -2 -12 -2q-64 0 -110 58.5t-46 164.5q0 44 36.5 102t99 103t124.5 45q34 0 58 -26.5t24 -80.5q0 -70 -66.5 -121t-140.5 -59q-20 -103 -20 -135
q0 -17 11.5 -26t29.5 -9q8 0 12 2v2q0 63 40 130t97 67q27 0 27 -41q0 -52 -48.5 -109t-101.5 -63q0 -91 31 -134.5t84 -43.5q91 0 201 110q-58 27 -93.5 78.5t-35.5 118.5q0 51 30 96t78 55v-6q-47 -13 -71.5 -55.5t-24.5 -95.5q0 -58 36 -104t95 -72q89 100 123 208
l-185 56l80 32l-106 220l86 -27l-19 129l84 -92l50 72l49 -160l69 219l35 -57l127 75v-145h78l-168 -166l166 47l-27 -86l125 -12l-121 -57zM1632 -8v-8q-16 0 -30.5 -10t-14.5 -27q0 -19 13.5 -31t31.5 -12q60 0 103 61t43 121q0 34 -23 72q-61 -129 -143 -129
q-32 0 -47 25t-15 61q0 56 29.5 88.5t60.5 38.5q23 150 23 223q0 5 -4.5 10.5t-13.5 5.5q-8 0 -19 -7.5t-22.5 -22t-20 -40t-8.5 -57.5q0 -43 -46.5 -282t-55.5 -267q-34 17 -54 17q-11 0 -21.5 -4t-16.5 -8t-15.5 -11t-13.5 -10q4 23 34 185t56 309t26 172q0 29 -9 49
t-23 33t-31 25.5t-34.5 31t-31.5 44.5t-23 72t-9 107q0 56 37.5 178t37.5 181q0 34 -14 34q-19 0 -48.5 -34.5t-49.5 -88.5q-5 -36 -33.5 -182.5t-28.5 -148.5q-36 18 -53 18q-37 0 -63 -20q3 21 21.5 125t32 190t13.5 111q0 28 -14 28q-28 0 -62 -86h-16q7 23 14 38.5
t19 33t29.5 26.5t41.5 9q83 0 97 -92q4 6 15.5 23.5t19 26.5t19.5 21t26 17.5t30 5.5q48 0 75.5 -56.5t27.5 -130.5q0 -82 -41 -202.5t-41 -177.5q0 -41 11 -67.5t28 -38t37.5 -22.5t39 -20.5t34 -33t20.5 -58.5q28 47 48.5 62.5t45.5 15.5q38 0 67.5 -38.5t42.5 -83.5
t13 -81q0 -61 -27 -125q31 -46 31 -94q0 -71 -41.5 -131t-110.5 -60q-27 0 -45 16t-18 42q0 19 13 32t32 13h12zM350 526h-8l6 6q19 0 43.5 17.5t24.5 42.5v10q-38 -14 -80 -14q-24 0 -53.5 5.5t-57.5 22.5t-28 41q0 25 28.5 37.5t55.5 12.5q35 0 80 -23.5t65 -54.5
q72 30 72 94q0 37 -17 57q-56 -32 -114 -32q-96 0 -159 67.5t-63 181.5q0 27 21 88q-53 39 -53 119q0 76 48 142.5t115 66.5q6 0 15 -1t12 -1v-10h-18q-65 0 -112.5 -61.5t-47.5 -133.5q0 -68 49 -102q55 125 162 248t176 123q63 0 63 -109q0 -88 -72.5 -169.5
t-166.5 -115.5q0 -1 -1 -3t-1 -3q-2 -9 -11 -46.5t-13 -54.5t-10 -46.5t-8.5 -51t-2.5 -38.5q0 -31 18.5 -50.5t33.5 -23.5t24 -4q50 0 100 37q-29 20 -70 20q-14 0 -34 -4.5t-23 -7.5v6q7 7 24.5 12.5t26.5 5.5q51 0 86 -24q39 34 62.5 84t23.5 102q0 90 -57 90
q-55 0 -90 -47.5t-35 -103.5q0 -13 2.5 -25.5t11.5 -24.5t23 -12q29 0 46 35.5t17 71.5q0 8 -4 24h12q5 -10 5 -24q0 -39 -23 -79t-53 -40q-49 0 -49 78q0 57 37.5 109.5t93.5 52.5q43 0 68.5 -38t25.5 -91q0 -51 -26 -99t-72 -80q24 -24 24 -69q0 -77 -88 -113q2 -2 2 -8
q0 -29 -26.5 -50.5t-55.5 -21.5zM2410 936h19q-45 -176 -125 -176q-35 0 -64.5 25.5t-37.5 74.5q-32 -62 -55 -82t-52 -20q-38 0 -65.5 38t-38.5 83t-11 86q0 46 36 109.5t88 110t91 46.5q36 0 50 -39q9 49 19.5 102t17.5 85.5t8 35.5q32 -16 53 -16q11 0 21.5 3.5t17 7.5
t17.5 11.5t16 10.5q-1 -5 -33 -169.5t-56 -296t-24 -157.5q0 -27 14 -27q27 0 54.5 52.5t39.5 101.5zM1944 868h14q-25 -108 -92 -108q-79 0 -99 98q-32 -60 -54.5 -80t-49.5 -20q-38 0 -66 38t-39.5 83.5t-11.5 85.5q0 46 36 109.5t88 110t91 46.5q40 0 54 -47l10 41
q40 -15 55 -15q9 0 19.5 3.5t16.5 7t17 11t15 9.5q-1 -5 -24.5 -121.5t-38.5 -201t-15 -109.5q0 -27 12 -27q30 0 62 86zM2853 868h16q-9 -31 -17.5 -51.5t-28.5 -38.5t-48 -18q-36 0 -61.5 24t-34.5 74q-33 -61 -55.5 -80.5t-49.5 -19.5q-38 0 -66.5 38t-40 83.5
t-11.5 85.5q0 46 37 109.5t89 110t91 46.5q36 0 53 -47l10 41q40 -15 53 -15q8 0 16 2t15.5 6t12.5 7t13 8.5t11 7.5q-4 -25 -24.5 -126.5t-37 -191t-16.5 -114.5q0 -27 14 -27q28 0 60 86zM1024 868h14q-25 -108 -94 -108q-34 0 -61 24.5t-35 73.5q-30 -61 -53.5 -80.5
t-53.5 -19.5q-37 0 -64 38t-37.5 83t-10.5 86q0 46 36.5 109.5t88.5 110t92 46.5q32 0 49 -47l10 41q40 -15 53 -15q15 0 26 4t26.5 15t17.5 12q-4 -25 -25 -126t-38 -191t-17 -115q0 -27 17 -27q13 0 24.5 14.5t17.5 28.5t17 43zM688 -152h-8q-36 0 -75.5 20t-39.5 58
q0 43 53 43q38 0 69.5 -25.5t31.5 -58.5q0 -2 -1 -8t-1 -8q49 12 86 47t37 90q0 26 -11 60h7q12 -18 12 -60q0 -58 -40.5 -101t-98.5 -52q-14 -27 -48.5 -42.5t-68.5 -15.5q-56 0 -106 26t-50 75q0 24 14 40.5t39 16.5q15 0 25 -2q-72 62 -138 88.5t-157 26.5
q-45 0 -174 -17q38 14 87.5 29t62.5 20q72 26 129 90t57 121q0 68 -46.5 107t-115.5 39q-145 0 -145 -84q0 -25 27.5 -40.5t60.5 -15.5q19 0 40.5 10.5t30.5 17.5t35 28v-15q-17 -24 -47 -43.5t-59 -19.5q-42 0 -73.5 22t-31.5 56q0 98 154 98q89 0 138.5 -46t49.5 -122
q0 -58 -51.5 -115.5t-93.5 -83.5l29 -8q86 -19 143 -52t109 -105h-3v-3q-6 1 -17.5 4t-16.5 3q-26 0 -39 -13t-13 -32q0 -42 50 -66.5t96 -24.5q28 0 55.5 12t40.5 31zM2234 1141q-5 73 -30 73q-8 0 -15 -4t-12 -12t-8.5 -15.5t-7 -19.5t-5 -19t-3.5 -19t-3 -15
q-11 -51 -31 -165.5t-20 -147.5q0 -17 15 -17q39 0 61 69.5t59 291.5zM1036 -49h-24q-32 0 -50 -16.5t-18 -47.5q0 -42 34.5 -67t80.5 -25q43 0 83 28.5t40 72.5q0 20 -7 46t-19 57.5t-15 43.5q-59 -20 -82 -70q28 -10 44.5 -32.5t16.5 -40.5q0 -13 -10.5 -26t-30.5 -13
q-19 0 -33 19t-14 40t4 31zM2675 926q4 48 35 198q0 90 -29 90q-39 0 -53 -104q-50 -281 -50 -313q0 -17 13 -17q49 0 84 146zM1765 926q2 35 35 198q0 90 -28 90q-12 0 -20.5 -7t-14.5 -22.5t-9 -24t-6 -29.5l-4 -21q-49 -276 -49 -313q0 -17 10 -17q51 0 86 146zM846 926
q4 48 35 198q0 90 -29 90q-19 0 -33.5 -36.5t-19.5 -67.5q-11 -48 -30 -163t-19 -150q0 -17 12 -17q46 0 84 146zM434 1356q0 -1 -7.5 -20.5t-18.5 -48.5t-23.5 -62t-24.5 -67t-20 -58q83 36 142 126t59 187q0 41 -29 41q-19 0 -34.5 -20t-43.5 -78zM2421 795h4
q-10 -64 -54.5 -102t-101.5 -46q0 -42 -42.5 -75t-100.5 -33q-30 0 -57.5 8t-49.5 32t-22 60q0 31 26 60t60 30v-6q-27 -5 -48.5 -26t-21.5 -46q0 -84 117 -84q124 0 129 80q-4 -2 -12 -2q-38 0 -63 15.5t-25 41.5q0 11 12.5 21t23.5 10q24 0 45 -19t29 -46q51 6 95.5 42.5
t56.5 84.5zM1917 729l16 -8q-12 -56 -67.5 -95.5t-124.5 -39.5h-17q-27 -27 -77 -27t-94 22.5t-66 63.5v2q73 -80 155 -80q44 0 68 21q-29 4 -61 15t-66.5 30t-57 51t-22.5 72q0 35 17 55l8 -6q-8 -28 -8 -45q0 -35 21 -64t54 -46t67 -27t67 -13q6 12 6 29q0 36 -30.5 62
t-72.5 26q-36 0 -63 -16l-6 2q24 24 67 24q44 0 79.5 -27.5t35.5 -68.5q0 -15 -4 -31h6q59 0 109 30.5t61 88.5zM1966 231q39 6 70.5 48.5t46 89.5t14.5 82q0 34 -16 34q-65 0 -115 -254zM2009 53v-4q39 0 87 56t48 106q0 22 -14 22q-46 0 -83.5 -62t-37.5 -118zM410 623
q-18 30 -57.5 50.5t-71.5 20.5q-64 0 -64 -37q0 -49 109 -49q40 0 84 15zM1290 522l-8 2v4q-7 41 -30.5 60.5t-45.5 19.5q-14 0 -63.5 -23.5t-98.5 -23.5q-27 0 -40 12t-13 29q0 26 22 38.5t48 12.5l94 -10q51 0 51 37q0 23 -18 36t-43 13q-16 0 -30.5 -8t-14.5 -21
q0 -22 24 -22q18 0 35 10l2 -12q-16 -8 -35 -8q-16 0 -27.5 8t-11.5 22q0 17 20 29t40 12q30 0 51 -15.5t21 -41.5q0 -25 -20 -36t-44 -11l-94 10q-22 0 -42 -10.5t-20 -32.5q0 -15 13.5 -22t29.5 -7q27 0 80.5 26t71.5 26q42 0 69 -29t27 -74zM1638 223q-33 -3 -55 -39.5
t-22 -77.5q0 -57 36 -57q8 0 14.5 12t11 35.5t7 41t5 48t3.5 37.5zM705 -111q0 28 -26 48t-54 20q-43 0 -43 -41q0 -26 30 -39.5t62 -13.5q17 0 24 5t7 21zM627 391q26 18 46.5 48.5t20.5 56.5q0 30 -24 30q-27 0 -39.5 -29t-12.5 -59q0 -29 9 -47zM2251 668h6
q-5 23 -19.5 38t-35.5 15q-25 0 -25 -21q0 -32 74 -32zM1053 -53q-2 -8 -2 -21q0 -19 6.5 -34t17.5 -15q12 0 18.5 6t6.5 13q0 32 -47 51z" />
    </font>
</defs>
</svg>
